<?xml version="1.0" encoding="UTF-8"?>
<!DOCTYPE svg PUBLIC "-//W3C//DTD SVG 1.1//EN" "http://www.w3.org/Graphics/SVG/1.1/DTD/svg11.dtd">
<!-- Creator: CorelDRAW -->
<svg xmlns="http://www.w3.org/2000/svg" xml:space="preserve" width="0.666669in" height="0.666669in" style="shape-rendering:geometricPrecision; text-rendering:geometricPrecision; image-rendering:optimizeQuality; fill-rule:evenodd; clip-rule:evenodd"
viewBox="0 0 0.0974167 0.0974167"
 xmlns:xlink="http://www.w3.org/1999/xlink">
 <defs>
  <style type="text/css">
   <![CDATA[
    .fil0 {fill:#8DBD40}
   ]]>
  </style>
 </defs>
 <g id="Layer_x0020_1">
  <metadata id="CorelCorpID_0Corel-Layer"/>
  <g id="_260328888">
   <path id="_777120776" class="fil0" d="M0.0423352 0.07941c-0.000153603,0 -0.000306056,-2.53129e-005 -0.000451605,-7.47881e-005 -0.00558092,-0.00177651 -0.0106544,-0.00486468 -0.0147954,-0.00900564 -0.00414154,-0.00414154 -0.00722971,-0.00921447 -0.00900621,-0.0147948 -7.13364e-005,-0.000208256 -9.26222e-005,-0.000429744 -6.21317e-005,-0.000647205 3.04905e-005,-0.000217461 0.000112757,-0.000424566 0.000238747,-0.000604058l0.020672 -0.0294964c0.013207,-0.0171386 0.0344963,-0.0263122 0.0569983,-0.0245788 0.000330794,2.53129e-005 0.000642027,0.000167986 0.000876747,0.000402705 0.00023472,0.00023472 0.000377968,0.000545378 0.000403281,0.000876172 0.00172991,0.022498 -0.00744027,0.0437896 -0.0245299,0.0569598l-5.00505e-005 3.73941e-005 -0.029497 0.0206686c-0.000232418,0.00016626 -0.00051086,0.000256005 -0.000796781,0.000257156zm-0.0213894 -0.0241146c0.00166777,0.00491818 0.00444587,0.00938591 0.00811796,0.013058 0.0036721,0.00367267 0.0081404,0.00645019 0.0130592,0.00811796l0.0288837 -0.0202434c0.0160248,-0.0123607 0.0247595,-0.0322216 0.0235122,-0.0533257 -0.0211305,-0.00125126 -0.0409879,0.00749434 -0.0533487,0.0235352l-0.0202244 0.0288579z"/>
   <path id="_777114392" class="fil0" d="M0.0925422 0.0296529c-8.80199e-005,0 -0.00017604,-7.47881e-006 -0.000262334,-2.3587e-005 -0.00606647,-0.00115576 -0.0116422,-0.00411507 -0.0159989,-0.00849075 -0.00437568,-0.0043567 -0.00733556,-0.00993244 -0.00849133,-0.0159983 -6.90352e-005,-0.000361859 8.6294e-006,-0.000736951 0.000215735,-0.00104186 0.000207681,-0.000304905 0.000527544,-0.000515463 0.000889979,-0.000584498 0.000361859,-6.90352e-005 0.000736951,8.6294e-006 0.00104186,0.000215735 0.000304905,0.000207681 0.000515463,0.000527544 0.000584498,0.000889403 0.00105164,0.00551821 0.00374401,0.0105906 0.00772504,0.0145538 0.00396319,0.00398103 0.00903613,0.0066734 0.0145543,0.00772504 0.000338848,6.50081e-005 0.000642027,0.00025428 0.000849133,0.00053042 0.000207681,0.000276716 0.00030433,0.000620166 0.000272114,0.000964191 -3.22164e-005,0.000344025 -0.000191573,0.000663888 -0.000446428,0.000896882 -0.00025543,0.000232994 -0.00058795,0.000362435 -0.000933701,0.000363585z"/>
   <path id="_777118424" class="fil0" d="M0.0607832 0.0475215c-0.00251863,-1.15059e-006 -0.00495845,-0.000875596 -0.00690467,-0.00247491 -0.00194622,-0.00159816 -0.00327745,-0.00382282 -0.0037676,-0.00629313 -0.00049015,-0.00247031 -0.00010873,-0.00503439 0.00107983,-0.00725445 0.00118856,-0.00222063 0.00311003,-0.00396089 0.00543767,-0.00492336 0.00232764,-0.000962465 0.00491646,-0.00108845 0.00732636,-0.000356106 0.0024099,0.000732348 0.00449131,0.00227759 0.00588928,0.00437223 0.00139854,0.00209464 0.00202676,0.00460982 0.00177881,0.0071158 -0.000247951,0.00250655 -0.00135769,0.00484915 -0.00313937,0.0066291 -0.00101021,0.00101194 -0.00221085,0.0018139 -0.0035323,0.00236043 -0.00132145,0.000546529 -0.00273782,0.000826696 -0.004168,0.000824395zm0 -0.0189962c-0.00187661,0 -0.00369511,0.000650081 -0.00514657,0.00184036 -0.00145089,0.00119028 -0.00244385,0.00284713 -0.00281031,0.00468749 -0.000366462,0.00184094 -8.28422e-005,0.00375149 0.000801383,0.00540661 0.000884801,0.00165512 0.00231556,0.0029524 0.00404949,0.00367095 0.00173393,0.000717966 0.00366347,0.000812889 0.00545896,0.000268662 0.00179607,-0.000544803 0.00334763,-0.00169539 0.00439064,-0.00325558 0.00104243,-0.00156077 0.00151187,-0.0034345 0.00132778,-0.0053019 -0.000183519,-0.0018674 -0.00100964,-0.00361342 -0.00233684,-0.00494062 -0.000751333,-0.00075536 -0.00164534,-0.00135424 -0.00262909,-0.00176212 -0.000984327,-0.000407308 -0.00203999,-0.000616139 -0.00310543,-0.000613838z"/>
   <path id="_777118112" class="fil0" d="M0.0532762 0.0973108l-8.34175e-005 0c-0.000223789,-1.3807e-005 -0.000440675,-8.11163e-005 -0.000632247,-0.000196175 -0.000192148,-0.000115634 -0.00035323,-0.000275565 -0.000470015,-0.000467138l-0.0109398 -0.0178991c-0.000192148,-0.000314685 -0.000251403,-0.000693228 -0.000164534,-0.00105164 8.6294e-005,-0.000358408 0.000311809,-0.000667915 0.000626494,-0.000860063 0.000314685,-0.000192148 0.000692653,-0.000251403 0.00105106,-0.000165109 0.000358408,8.68693e-005 0.000667915,0.000312384 0.000860639,0.000626494l0.00989619 0.0161939 0.00749204 -0.00948774c0.00165167,-0.0021027 0.00286899,-0.00451317 0.0035812,-0.00709049 0.000711638,-0.00257731 0.000904936,-0.00527026 0.000567239,-0.00792294l-0.000914716 -0.00703411c-2.70388e-005,-0.000182368 -1.72588e-005,-0.000368763 2.81894e-005,-0.000547104 4.60235e-005,-0.000178916 0.00012714,-0.000346902 0.000238171,-0.000494177 0.000111607,-0.000147275 0.000250828,-0.000270388 0.000410184,-0.000363585 0.000159932,-9.26222e-005 0.000336547,-0.000152453 0.00051949,-0.00017604 0.000182943,-2.41623e-005 0.000368763,-1.09306e-005 0.000546529,3.73941e-005 0.000178341,4.88999e-005 0.000344601,0.000132893 0.000489574,0.000246801 0.000145549,0.000113333 0.000266936,0.00025543 0.000356682,0.000415937 9.0321e-005,0.000161657 0.000147275,0.000338848 0.000167986,0.000522366l0.000914716 0.00703526c0.000384871,0.00302086 0.000165109,0.0060889 -0.000646054,0.00902405 -0.000811739,0.00293572 -0.00219877,0.00568044 -0.00408055,0.00807482l-0.0087295 0.0110554c-0.000130016,0.000163383 -0.000295125,0.00029455 -0.000483246,0.000385446 -0.000187546,9.0321e-005 -0.000393501,0.000137495 -0.000602332,0.000137495z"/>
   <path id="_777122984" class="fil0" d="M0.0193931 0.0564702c-0.00025543,0 -0.000506258,-7.01858e-005 -0.000724294,-0.000203078l-0.0178974 -0.0109392c-0.000190997,-0.000116785 -0.000350929,-0.000277867 -0.000466563,-0.000469439 -0.000115634,-0.000191573 -0.000182943,-0.000408458 -0.000196175,-0.000632247 -1.3807e-005,-0.000223214 2.64635e-005,-0.000446428 0.000117935,-0.000651232 9.08963e-005,-0.000204229 0.000230117,-0.000383721 0.000405582,-0.000522366l0.0110566 -0.00872892c0.00239495,-0.00188121 0.00513967,-0.00326824 0.00807482,-0.0040794 0.00293572,-0.000811739 0.00600318,-0.0010315 0.00902462,-0.000647205l0.00703584 0.000914716c0.000182943,2.07106e-005 0.000360709,7.76646e-005 0.000521791,0.000167986 0.000161082,8.97457e-005 0.000302604,0.000211133 0.000416512,0.000356106 0.000113908,0.000145549 0.000197326,0.000311809 0.000246225,0.00049015 4.88999e-005,0.000177766 6.15564e-005,0.000363585 3.79693e-005,0.000546529 -2.41623e-005,0.000182943 -8.39928e-005,0.000359558 -0.000176615,0.000518914 -9.26222e-005,0.000159932 -0.00021631,0.000299152 -0.000363585,0.000410759 -0.000147275,0.000111032 -0.000314685,0.000192148 -0.000493602,0.000237596 -0.000178916,4.60235e-005 -0.000365311,5.58034e-005 -0.000547679,2.87647e-005l-0.00703468 -0.000914716c-0.0026521,-0.000337122 -0.00534562,-0.000144399 -0.00792294,0.000567814 -0.00257731,0.000712213 -0.00498779,0.00192896 -0.00709106,0.00358062l-0.00949176 0.00749549 0.0161939 0.00989619c0.000258882,0.000158206 0.000458509,0.000396377 0.000568965,0.000678271 0.000110456,0.000282469 0.000125989,0.000592552 4.37223e-005,0.000884226 -8.22669e-005,0.000291674 -0.000257156,0.00054883 -0.000498779,0.000731773 -0.000241623,0.000182943 -0.000536173,0.000281894 -0.000839353,0.000281894z"/>
   <path id="_260333568" class="fil0" d="M0.0184364 0.0974167c-0.000274415,0 -0.000543652,-8.16916e-005 -0.000772043,-0.00023472 -0.000228391,-0.000152453 -0.000406732,-0.000369914 -0.000512011,-0.000623618 -0.000105279,-0.00025428 -0.000132317,-0.000533297 -7.88152e-005,-0.000803109 5.35023e-005,-0.000269812 0.00018582,-0.000517189 0.000380269,-0.000711638l0.012416 -0.0124154c0.00012829,-0.000132893 0.000281318,-0.000238747 0.00045103,-0.000311809 0.000169711,-7.24869e-005 0.000352079,-0.000111032 0.000536749,-0.000112757 0.000184669,-1.15059e-006 0.000367612,3.39423e-005 0.000538474,0.000103553 0.000170862,7.01858e-005 0.000326191,0.000173163 0.000456783,0.000303755 0.000130016,0.000130592 0.000233569,0.000285921 0.00030318,0.000456783 7.01858e-005,0.000170862 0.000105279,0.000353805 0.000103553,0.000538474 -1.72588e-006,0.000184094 -3.96952e-005,0.000367037 -0.000112757,0.000536173 -7.24869e-005,0.000169711 -0.000178916,0.000323315 -0.000311234,0.000451605l-0.012416 0.0124154c-0.000260608,0.000260608 -0.000614413,0.000406732 -0.000983176,0.000407308z"/>
   <path id="_777119144" class="fil0" d="M0.00138991 0.0803708c-0.00027499,0 -0.000543652,-8.16916e-005 -0.000772043,-0.00023472 -0.000228391,-0.000152453 -0.000406732,-0.000369914 -0.000512011,-0.000623618 -0.000105279,-0.00025428 -0.000132317,-0.000533297 -7.88152e-005,-0.000803109 5.35023e-005,-0.000269237 0.00018582,-0.000517189 0.000380269,-0.000711638l0.012416 -0.0124154c0.000127715,-0.000132893 0.000281318,-0.000238747 0.00045103,-0.000311234 0.000169711,-7.30622e-005 0.000352079,-0.000111607 0.000536749,-0.000112757 0.000184669,-1.72588e-006 0.000367612,3.3367e-005 0.000538474,0.000102977 0.000170862,7.01858e-005 0.000326191,0.000173163 0.000456207,0.000303755 0.000130592,0.000130592 0.000234144,0.000285921 0.000303755,0.000456783 7.01858e-005,0.000170862 0.000105279,0.000353805 0.000103553,0.000538474 -1.72588e-006,0.000184669 -3.96952e-005,0.000367037 -0.000112757,0.000536749 -7.30622e-005,0.000169136 -0.000178916,0.000322739 -0.000311234,0.00045103l-0.012416 0.0124154c-0.000260608,0.000260608 -0.000614413,0.000407308 -0.000983176,0.000407308z"/>
   <path id="_777119240" class="fil0" d="M0.00223271 0.0965739c-0.00027499,0 -0.000543652,-8.16916e-005 -0.000772619,-0.000234144 -0.000228391,-0.000153028 -0.000406157,-0.000369914 -0.000511436,-0.000624193 -0.000105279,-0.000253704 -0.000132893,-0.000533297 -7.93905e-005,-0.000802534 5.35023e-005,-0.000269812 0.00018582,-0.000517764 0.000380269,-0.000711638l0.0133629 -0.0133623c0.000261758,-0.000253129 0.000613263,-0.000393501 0.000977423,-0.000390049 0.000364736,2.87647e-006 0.000713364,0.000149576 0.000971095,0.000407308 0.000257731,0.000257156 0.000403856,0.000606359 0.000407308,0.00097052 2.87647e-006,0.000364736 -0.00013692,0.000715665 -0.000390049,0.000977998l-0.0133629 0.0133618c-0.000260608,0.000260608 -0.000613838,0.000407308 -0.000982601,0.000407308z"/>
  </g>
 </g>
</svg>
