<?xml version="1.0" encoding="UTF-8"?>
<!DOCTYPE svg PUBLIC "-//W3C//DTD SVG 1.1//EN" "http://www.w3.org/Graphics/SVG/1.1/DTD/svg11.dtd">
<!-- Creator: CorelDRAW -->
<svg xmlns="http://www.w3.org/2000/svg" xml:space="preserve" width="0.499051in" height="0.49926in" style="shape-rendering:geometricPrecision; text-rendering:geometricPrecision; image-rendering:optimizeQuality; fill-rule:evenodd; clip-rule:evenodd"
viewBox="0 0 0.0339805 0.0339947"
 xmlns:xlink="http://www.w3.org/1999/xlink">
 <defs>
  <style type="text/css">
   <![CDATA[
    .fil0 {fill:#8DBD40}
   ]]>
  </style>
 </defs>
 <g id="Layer_x0020_1">
  <metadata id="CorelCorpID_0Corel-Layer"/>
  <path class="fil0" d="M0.0127669 0.0148445c0,-0.00113046 -0.000997494,-0.00212768 -0.00212795,-0.00212768l-0.00212768 0c-0.00239388,0 -0.00425564,0.00192824 -0.00425564,0.00425564l0 0.00425537c0,0.00232713 0.00192824,0.00425564 0.00425564,0.00425564l0.00212768 0c0.00119694,0 0.00212795,-0.000931013 0.00212795,-0.00212795l0 -0.008511zm-0.00212795 0.008511l-0.00212768 0c-0.00119694,0 -0.00212795,-0.000930745 -0.00212795,-0.00212768l0 -0.00425537c0,-0.00113046 0.000931013,-0.00212795 0.00212795,-0.00212795l0.00212768 0 0 0.008511zm0.0148946 0.00212795c0.0023274,0 0.00425564,-0.00192851 0.00425564,-0.00425564l0 -0.00425537c0,-0.0023274 -0.00192824,-0.00418915 -0.00425564,-0.00418915l-0.00206147 0c-0.00119667,0 -0.00212768,0.000997494 -0.00212768,0.00212795l0 0.008511c0,0.00119667 0.000931013,0.00212768 0.00212768,0.00212768l0.00206147 0 0 -6.64818e-005zm-0.00212795 -0.010639l0.00206147 0c0.00113019,0 0.00212768,0.000997494 0.00212768,0.00212795l0 0.00425537c0,0.00119694 -0.000997494,0.00212768 -0.00212768,0.00212768l-0.00212795 0 6.64818e-005 -0.008511zm-0.00472101 -0.0147616c-0.0102398,-0.000997494 -0.0183522,0.00718137 -0.0186181,0.0169558l-6.64818e-005 0.000997494c0,0.000598336 0.000531854,0.00106371 0.00113046,0.00106371 0.000531854,0 0.000997226,-0.000465372 0.00106371,-0.000997226l0 -0.00113019c0.000199713,-0.00844479 0.0073146,-0.0156262 0.0162245,-0.0148284 0.00777971,0.000731567 0.0135647,0.00751405 0.0135647,0.0152935l0 0.0112376c0,0.00172879 -0.00146287,0.00319166 -0.00319166,0.00319166l-0.00558554 0c0.000332677,-0.000731299 0.000332677,-0.00159583 -0.000132964,-0.00246036 -0.000598336,-0.00113019 -0.00186176,-0.00179528 -0.00312518,-0.00179528l-0.00385648 0c-0.00152935,0 -0.00292573,0.00106398 -0.00325814,0.00259332 -0.000332409,0.00206147 0.00119694,0.00379026 0.00312518,0.00379026l0.0127002 0c0.00292573,0 0.00531961,-0.0023274 0.00531961,-0.00525313l0 -0.011304c0.000132964,-0.00884341 -0.00651655,-0.0165569 -0.0152938,-0.0173547zm0.00152935 0.0317839l-0.00425537 0c-0.000598336,0 -0.00106398,-0.000465372 -0.00106398,-0.00106371 0,-0.000532122 0.00046564,-0.00106398 0.00106398,-0.00106398l0.00425537 0c0.000531854,0 0.00106398,0.000531854 0.00106398,0.00106398 0,0.000598336 -0.000465372,0.00106371 -0.00106398,0.00106371z"/>
 </g>
</svg>
