<?xml version="1.0" encoding="UTF-8"?>
<!DOCTYPE svg PUBLIC "-//W3C//DTD SVG 1.1//EN" "http://www.w3.org/Graphics/SVG/1.1/DTD/svg11.dtd">
<!-- Creator: CorelDRAW -->
<svg xmlns="http://www.w3.org/2000/svg" xml:space="preserve" width="0.5in" height="0.5in" style="shape-rendering:geometricPrecision; text-rendering:geometricPrecision; image-rendering:optimizeQuality; fill-rule:evenodd; clip-rule:evenodd"
viewBox="0 0 0.0577339 0.0577339"
 xmlns:xlink="http://www.w3.org/1999/xlink">
 <defs>
  <style type="text/css">
   <![CDATA[
    .fil0 {fill:#8DBD40}
   ]]>
  </style>
 </defs>
 <g id="Layer_x0020_1">
  <metadata id="CorelCorpID_0Corel-Layer"/>
  <path class="fil0" d="M0.0559296 0.0216502c-0.00101466,0 -0.00180384,0.000901921 -0.00180384,0.0018043l0 0.0288669c0,0.00101466 -0.000902376,0.0018043 -0.0018043,0.0018043l-0.046909 0c-0.00101466,0 -0.0018043,-0.000789636 -0.0018043,-0.0018043l0 -0.0288669c0,-0.000902376 -0.000901921,-0.0018043 -0.00180384,-0.0018043 -0.00101512,0 -0.0018043,0.000901921 -0.0018043,0.0018043l0 0.0288669c0,0.00304444 0.002368,0.00541244 0.00541244,0.00541244l0.046909 0c0.0029317,0 0.00541244,-0.002368 0.00541244,-0.0052997l0 -0.0289797c0,-0.000902376 -0.000901921,-0.0018043 -0.0018043,-0.0018043zm-0.0487129 0.00958473c0.00011274,0.00011274 0.00011274,0.00022548 0.00011274,0.000338221 0.00011274,0.00011274 0.00011274,0.00011274 0.00022548,0.00022548 0.00011274,0.00011274 0.00011274,0.00022548 0.00022548,0.000338221 0.00011274,0 0.00011274,0 0.00011274,0l0.0149972 0.0110508c0.00169156,0.00124014 0.00372134,0.00191704 0.00597659,0.00191704 0.00214252,0 0.0041723,-0.000676896 0.0058634,-0.00202978l0.0149976 -0.0110508c0,0 0,0 0.00011274,0 0.00011274,-0.00011274 0.00011274,-0.00022548 0.00022548,-0.000338221 0.00011274,-0.00011274 0.00011274,-0.00011274 0.00022548,-0.00022548 0,-0.00011274 0,-0.00022548 0.00011274,-0.000338221 0,-0.00011274 0,-0.00022548 0,-0.000338221 0,0 0.00011274,0 0.00011274,-0.00011274l0 -0.0252588c0,-0.0029317 -0.00248074,-0.00541244 -0.00541244,-0.00541244l-0.0324755 0c-0.00304444,0 -0.00541244,0.00248074 -0.00541244,0.00541244l0 0.0252588c0,0.00011274 0,0.00011274 0,0.00022548 0,0.00011274 0,0.00022548 0,0.000338221zm0.00360814 -0.0258225c0,-0.000901921 0.000789636,-0.0018043 0.0018043,-0.0018043l0.0324755 0c0.000901921,0 0.0018043,0.000902376 0.0018043,0.0018043l0 0.0243564 -0.0143207 0.0104871c-0.00225526,0.0016911 -0.00530015,0.0016911 -0.00755541,0l-0.014208 -0.0104871 0 -0.0243564zm0.0288674 0.0216502c0,-0.00101466 -0.000902376,-0.0018043 -0.0018043,-0.0018043l-0.0180421 0c-0.00101466,0 -0.0018043,0.000789636 -0.0018043,0.0018043 0,0.000902376 0.000789636,0.00169156 0.0018043,0.00169156l0.0180421 0c0.000901921,0.00011274 0.0018043,-0.000676441 0.0018043,-0.00169156zm-0.0198464 -0.00902103l0.0180421 0c0.000901921,0 0.0018043,-0.000901921 0.0018043,-0.00180384 0,-0.000902376 -0.000902376,-0.00169156 -0.0018043,-0.00169156l-0.0180421 0c-0.00101466,0 -0.0018043,0.000902376 -0.0018043,0.00169156 0,0.00101466 0.000789636,0.00180384 0.0018043,0.00180384z"/>
 </g>
</svg>
