<?xml version="1.0" encoding="UTF-8"?>
<!DOCTYPE svg PUBLIC "-//W3C//DTD SVG 1.1//EN" "http://www.w3.org/Graphics/SVG/1.1/DTD/svg11.dtd">
<!-- Creator: CorelDRAW -->
<svg xmlns="http://www.w3.org/2000/svg" xml:space="preserve" width="0.5625in" height="0.500638in" style="shape-rendering:geometricPrecision; text-rendering:geometricPrecision; image-rendering:optimizeQuality; fill-rule:evenodd; clip-rule:evenodd"
viewBox="0 0 0.227186 0.202201"
 xmlns:xlink="http://www.w3.org/1999/xlink">
 <defs>
  <style type="text/css">
   <![CDATA[
    .fil0 {fill:#8DBD40}
   ]]>
  </style>
 </defs>
 <g id="Layer_x0020_1">
  <metadata id="CorelCorpID_0Corel-Layer"/>
  <path class="fil0" d="M0.104127 0.0441747c0,-0.0051265 0.00394346,-0.0094659 0.0094659,-0.0094659 0.00512809,0 0.0094659,0.0043394 0.0094659,0.0094659 0,0.00552244 -0.00433781,0.0094659 -0.0094659,0.0094659 -0.00552244,0 -0.0094659,-0.00394346 -0.0094659,-0.0094659zm0.00354912 0.0788836c-0.0126191,-0.015777 -0.0414127,-0.054035 -0.0414127,-0.0757272 0,-0.0260316 0.0209051,-0.0473311 0.0473295,-0.0473311 0.0260316,0 0.0473311,0.0212995 0.0473311,0.0473311 0,0.0216922 -0.029188,0.0599502 -0.0418087,0.0757272 -0.00276201,0.00394346 -0.00867721,0.00394346 -0.0114392,0zm0.0366822 -0.0619235c0.00276042,-0.00631113 0.00394346,-0.0106489 0.00394346,-0.0138037 0,-0.0189334 -0.015777,-0.0347088 -0.0347088,-0.0347088 -0.0193246,0 -0.0347072,0.0157754 -0.0347072,0.0347088 0,0.00315477 0.000788693,0.00749258 0.00354912,0.0138037 0.00236608,0.00631113 0.00631113,0.0130166 0.0102546,0.0197221 0.00670548,0.0110433 0.0145924,0.0216906 0.0209035,0.0295792 0.00591678,-0.00788852 0.0138053,-0.0185359 0.0205092,-0.0295792 0.00394505,-0.00670548 0.00788852,-0.013411 0.0102562,-0.0197221zm0.0153827 0.0268203c0,0.000395936 -0.000395936,0.000395936 -0.000790283,0.000395936 0.00315636,-0.00552244 0.00631113,-0.0114392 0.0086788,-0.0169601l0.0465408 -0.018539c0.00591678,-0.00236608 0.0130166,0.00197173 0.0130166,0.00867721l0 0.106887c0,0.00394505 -0.00236767,0.00749417 -0.00631113,0.00867721l-0.0611348 0.0244542c-0.00118463,0.000788693 -0.00236767,0.000788693 -0.00394505,0.000394346l-0.0863761 -0.0248486 -0.056797 0.0228769c-0.00591678,0.00236608 -0.0126223,-0.00197173 -0.0126223,-0.00867721l0 -0.106887c0,-0.00394346 0.00197332,-0.00749417 0.00591678,-0.00867721l0.0485141 -0.0197205c0.000788693,0.00433781 0.00197173,0.00828286 0.00354912,0.0122263l-0.0453578 0.0181431 0 0.100181 0.0504859 -0.0201148 0 -0.0465424c0,-0.00315477 0.00276042,-0.00630954 0.00631113,-0.00630954 0.00315477,0 0.00630954,0.00315477 0.00630954,0.00630954l0 0.0457537 0.0757288 0.0216922 0 -0.0674459c0,-0.00315477 0.00276042,-0.00630954 0.00630954,-0.00630954 0.00315636,0 0.00631113,0.00315477 0.00631113,0.00630954l0 0.0666572 0.0504859 -0.0201148 0 -0.100181 -0.0548237 0.0216922z"/>
 </g>
</svg>
