<?xml version="1.0" encoding="UTF-8"?>
<!DOCTYPE svg PUBLIC "-//W3C//DTD SVG 1.1//EN" "http://www.w3.org/Graphics/SVG/1.1/DTD/svg11.dtd">
<!-- Creator: CorelDRAW -->
<svg xmlns="http://www.w3.org/2000/svg" xml:space="preserve" width="0.707071in" height="0.729165in" style="shape-rendering:geometricPrecision; text-rendering:geometricPrecision; image-rendering:optimizeQuality; fill-rule:evenodd; clip-rule:evenodd"
viewBox="0 0 1.09721 1.1315"
 xmlns:xlink="http://www.w3.org/1999/xlink">
 <defs>
  <style type="text/css">
   <![CDATA[
    .fil0 {fill:#8DBD40}
   ]]>
  </style>
 </defs>
 <g id="Layer_x0020_1">
  <metadata id="CorelCorpID_0Corel-Layer"/>
  <g id="_492452200">
   <path id="_777126608" class="fil0" d="M0.120006 0.82291c0.0203441,0 0.04023,-0.00603603 0.0571468,-0.0173383 0.0169168,-0.0113023 0.0301007,-0.0273637 0.0378901,-0.0461622 0.0077833,-0.0187984 0.00981771,-0.0394786 0.00585275,-0.0594317 -0.00397107,-0.0199531 -0.0137705,-0.0382811 -0.0281519,-0.0526686 -0.0143875,-0.0143875 -0.0327155,-0.0241808 -0.0526686,-0.0281519 -0.0199531,-0.00397107 -0.0406393,-0.00193055 -0.0594317,0.00585275 -0.0187984,0.00778941 -0.0348599,0.0209734 -0.0461683,0.037884 -0.0113023,0.0169168 -0.0173322,0.0368027 -0.0173322,0.0571529 3.05467e-005,0.0272721 0.0108746,0.053414 0.0301618,0.0727012 0.0192811,0.0192811 0.0454291,0.0301313 0.0727012,0.0301618zm0 -0.17144c0.0135627,0 0.02682,0.00401995 0.0380979,0.0115589 0.0112778,0.00753282 0.0200692,0.0182425 0.025256,0.0307728 0.00519294,0.0125303 0.00654922,0.026319 0.00390387,0.0396191 -0.00264535,0.0133061 -0.00917623,0.0255248 -0.0187679,0.0351165 -0.00959167,0.00959167 -0.0218104,0.0161226 -0.0351104,0.0187679 -0.0133061,0.00264535 -0.0270888,0.00128296 -0.0396252,-0.00390387 -0.0125303,-0.00519294 -0.0232399,-0.0139782 -0.0307728,-0.025256 -0.00753282,-0.0112778 -0.0115589,-0.0245351 -0.0115589,-0.0380979 1.8328e-005,-0.0181814 0.00725179,-0.0356175 0.0201058,-0.0484715 0.0128602,-0.0128541 0.0302901,-0.0200875 0.0484715,-0.0201058z"/>
   <path id="_777125024" class="fil0" d="M0.903602 0.142177c-0.00321962,-0.00317075 -0.00756948,-0.00493635 -0.0120843,-0.00491191 -0.00452091,1.8328e-005 -0.00885244,0.00182058 -0.0120476,0.00501577 -0.00319519,0.0032013 -0.00499744,0.00752671 -0.00502188,0.0120476 -1.8328e-005,0.00452091 0.00174727,0.00886466 0.00491191,0.0120843l0.0514346 0.0514346c0.00210772,0.00210772 0.00473474,0.00362895 0.00761224,0.00441705 0.0028775,0.000781996 0.00591384,0.000800324 0.00879745,5.49841e-005 0.00288972,-0.000751449 0.00553506,-0.00223602 0.00767333,-0.00431931 0.00213216,-0.00208329 0.00369004,-0.00468587 0.0045148,-0.00755115 0.000336014,-0.00114245 0.0330943,-0.113212 0.0940533,-0.14368 0.0040566,-0.00204052 0.00714182,-0.00560838 0.00857141,-0.00991546 0.00142959,-0.0043132 0.00109357,-0.00901128 -0.000940839,-0.013074 -0.0020283,-0.00406271 -0.00558394,-0.00714793 -0.00989103,-0.00858974 -0.00430709,-0.0014418 -0.00900517,-0.00111801 -0.013074,0.000904183 -0.0539088,0.0269544 -0.0875102,0.0985926 -0.102527,0.138059l-0.0319824 -0.0319763z"/>
   <path id="_492450784" class="fil0" d="M0.942916 0.308589c0.0409082,-4.27654e-005 0.0801301,-0.0163119 0.109052,-0.0452397 0.0289277,-0.0289277 0.0451969,-0.0681497 0.0452458,-0.109052 -1.8328e-005,-0.0129701 -0.00163119,-0.0258853 -0.00480805,-0.0384583 -0.00110579,-0.00441095 -0.00391609,-0.00819874 -0.00781385,-0.0105386 -0.00390387,-0.00233377 -0.00857141,-0.00302412 -0.0129824,-0.00191833 -0.00440484,0.00110579 -0.00819874,0.00391609 -0.0105325,0.00781385 -0.00233377,0.00390387 -0.00302412,0.00857141 -0.00191833,0.0129762 0.00247428,0.00985437 0.00374503,0.0199653 0.00376335,0.0301252 0,0.0237348 -0.00703796,0.046932 -0.0202219,0.0666713 -0.0131901,0.0197332 -0.0319274,0.0351165 -0.05386,0.0442011 -0.0219264,0.00907848 -0.0460583,0.011455 -0.0693349,0.00682414 -0.0232827,-0.00462477 -0.0446654,-0.0160554 -0.0614478,-0.0328438 -0.0167824,-0.0167824 -0.0282129,-0.0381651 -0.0328438,-0.0614417 -0.00463088,-0.0232827 -0.00225435,-0.0474085 0.00683024,-0.069341 0.00908459,-0.0219264 0.0244618,-0.0406699 0.0442011,-0.0538539 0.0197332,-0.0131901 0.0429365,-0.020228 0.0666713,-0.020228 0.0101537,2.44374e-005 0.0202708,0.00128907 0.0301191,0.00376946 0.00441095,0.00110579 0.00907848,0.000415435 0.0129762,-0.00192444 0.00389776,-0.00233377 0.00670806,-0.00612156 0.00781385,-0.0105325 0.00110579,-0.00441095 0.000415435,-0.00907848 -0.00191833,-0.0129762 -0.00233377,-0.00389776 -0.00612767,-0.00671417 -0.0105325,-0.00781996 -0.012573,-0.00317075 -0.0254882,-0.00478362 -0.0384583,-0.00480194 -0.0409204,0 -0.0801668,0.016257 -0.109101,0.0451908 -0.02894,0.0289338 -0.0451969,0.0681803 -0.0451969,0.109107 0,0.0409204 0.016257,0.0801668 0.0451969,0.109101 0.0289338,0.0289338 0.0681803,0.0451908 0.109101,0.0451908z"/>
   <path id="_777125048" class="fil0" d="M0.24003 0.668613c0.00355564,6.10934e-006 0.00701963,-0.00109968 0.00990935,-0.00316464l0.496262 -0.352179 -0.00867527 0.0433886c-0.000891964,0.00445982 1.8328e-005,0.0090907 0.00254149,0.0128724 0.00252316,0.00378168 0.00643925,0.0064087 0.0108991,0.00730066 0.0011119,0.000226046 0.00224824,0.000342123 0.00338458,0.000336014 0.00395885,0 0.00779552,-0.00138071 0.0108563,-0.00389165 0.00306078,-0.00251094 0.00515629,-0.00600548 0.00593217,-0.00988492l0.0171489 -0.0857202c1.22187e-005,-8.55308e-005 -1.8328e-005,-0.000164952 0,-0.000250483 0.00018328,-0.00146013 0.000177171,-0.00293859 -1.22187e-005,-0.00440484 3.05467e-005,-0.000757558 1.22187e-005,-0.00152123 -5.49841e-005,-0.00227878 -0.000250483,-0.000733121 -0.000549841,-0.00145402 -0.000898073,-0.00214438 -0.000415435,-0.00139904 -0.00100804,-0.00273088 -0.00175949,-0.00397718l-0.000109968 -0.000238264c-0.000580388,-0.00064759 -0.00121576,-0.0012402 -0.0018939,-0.00178393 -0.0016373,-0.00216882 -0.00399551,-0.00367171 -0.00665307,-0.00423377 -0.000665918,-0.000336014 -0.00135627,-0.000623153 -0.00206496,-0.000867527l-0.0857202 -0.0171428c-0.00445371,-0.000873636 -0.00907237,4.88747e-005 -0.0128418,0.00257203 -0.00376946,0.00251705 -0.00639037,0.00643314 -0.00728234,0.0108807 -0.000891964,0.00445371 1.8328e-005,0.00907237 0.00252927,0.0128541 0.00251094,0.00377557 0.00642092,0.0064087 0.0108624,0.00731288l0.0467609 0.00934729 -0.499066 0.354177c-0.00296914,0.00210161 -0.00518683,0.0051013 -0.00633539,0.00855308 -0.00115467,0.00345178 -0.0011791,0.00717848 -7.33121e-005,0.0106425 0.0011119,0.003464 0.00329294,0.00648812 0.00623153,0.0086325 0.00293859,0.00214438 0.00648812,0.00329904 0.0101232,0.00329294z"/>
   <path id="_777114368" class="fil0" d="M1.08006 1.09721l-0.0342856 0 0 -0.73719c0,-0.00225435 -0.000439873,-0.00448426 -0.00130129,-0.00656143 -0.000861417,-0.00208329 -0.00212605,-0.00397107 -0.00371448,-0.00556561 -0.00159454,-0.00159454 -0.00348843,-0.00285306 -0.00556561,-0.00371448 -0.00208329,-0.000861417 -0.00430709,-0.0013074 -0.00656143,-0.00130129l-0.17144 0c-0.00225435,-6.10934e-006 -0.00448426,0.000439873 -0.00656143,0.00130129 -0.00208329,0.000861417 -0.00397107,0.00211994 -0.00556561,0.00371448 -0.00158843,0.00159454 -0.00285306,0.00348233 -0.00371448,0.00556561 -0.000861417,0.00207718 -0.00130129,0.00430709 -0.00130129,0.00656143l0 0.73719 -0.0685774 0 0 -0.531464c0,-0.00225435 -0.000439873,-0.00448426 -0.00130129,-0.00656143 -0.000861417,-0.00208329 -0.00212605,-0.00397107 -0.00371448,-0.00556561 -0.00159454,-0.00158843 -0.00348843,-0.00285306 -0.00556561,-0.00371448 -0.00208329,-0.000861417 -0.00430709,-0.00130129 -0.00656143,-0.00130129l-0.17144 0c-0.00225435,0 -0.00447815,0.000439873 -0.00656143,0.00130129 -0.00208329,0.000861417 -0.00397107,0.00212605 -0.00556561,0.00371448 -0.00158843,0.00159454 -0.00285306,0.00348233 -0.00371448,0.00556561 -0.000861417,0.00207718 -0.00130129,0.00430709 -0.00130129,0.00656143l0 0.531464 -0.0685774 0 0 -0.325738c0,-0.00224824 -0.000439873,-0.00447815 -0.00130129,-0.00656143 -0.000861417,-0.00207718 -0.00212605,-0.00397107 -0.00371448,-0.00556561 -0.00159454,-0.00158843 -0.00348233,-0.00285306 -0.00556561,-0.00371448 -0.00208329,-0.000861417 -0.00430709,-0.00130129 -0.00656143,-0.00130129l-0.17144 0c-0.00225435,0 -0.00447815,0.000439873 -0.00656143,0.00130129 -0.00208329,0.000861417 -0.00397107,0.00212605 -0.00556561,0.00371448 -0.00158843,0.00159454 -0.00285306,0.00348843 -0.00371448,0.00556561 -0.000861417,0.00208329 -0.00130129,0.0043132 -0.00130129,0.00656143l0 0.325738 -0.0685774 0 0 -0.222875c0,-0.00224824 -0.000439873,-0.00447815 -0.00130129,-0.00656143 -0.000861417,-0.00207718 -0.00212605,-0.00397107 -0.00371448,-0.0055595 -0.00159454,-0.00159454 -0.00348233,-0.00285917 -0.00556561,-0.00372059 -0.00208329,-0.000861417 -0.00430709,-0.00130129 -0.00656143,-0.00130129l-0.17144 0c-0.00225435,0 -0.00448426,0.000439873 -0.00656143,0.00130129 -0.00208329,0.000861417 -0.00397107,0.00212605 -0.00556561,0.00372059 -0.00158843,0.00158843 -0.00285306,0.00348233 -0.00371448,0.0055595 -0.000861417,0.00208329 -0.00130129,0.0043132 -0.00130129,0.00656143l0 0.222875c-0.00454535,0 -0.00890742,0.00180226 -0.0121209,0.00502188 -0.00321962,0.00321351 -0.00502188,0.00757558 -0.00502188,0.0121209 0,0.00454535 0.00180226,0.00890742 0.00502188,0.0121209 0.00321351,0.00321962 0.00757558,0.00502188 0.0121209,0.00502188l1.06292 0c0.00455146,0 0.00890742,-0.00180226 0.012127,-0.00502188 0.00321351,-0.00321351 0.00502188,-0.00757558 0.00502188,-0.0121209 0,-0.00454535 -0.00180837,-0.00890742 -0.00502188,-0.0121209 -0.00321962,-0.00321962 -0.00757558,-0.00502188 -0.012127,-0.00502188zm-0.205726 -0.720047l0.137155 0 0 0.720047 -0.137155 0 0 -0.720047zm-0.274303 0.205726l0.137155 0 0 0.514321 -0.137155 0 0 -0.514321zm-0.274303 0.205726l0.137155 0 0 0.308595 -0.137155 0 0 -0.308595zm-0.274303 0.102869l0.137155 0 0 0.205726 -0.137155 0 0 -0.205726z"/>
  </g>
 </g>
</svg>
