<?xml version="1.0" encoding="UTF-8"?>
<!DOCTYPE svg PUBLIC "-//W3C//DTD SVG 1.1//EN" "http://www.w3.org/Graphics/SVG/1.1/DTD/svg11.dtd">
<!-- Creator: CorelDRAW -->
<svg xmlns="http://www.w3.org/2000/svg" xml:space="preserve" width="0.748362in" height="0.729165in" style="shape-rendering:geometricPrecision; text-rendering:geometricPrecision; image-rendering:optimizeQuality; fill-rule:evenodd; clip-rule:evenodd"
viewBox="0 0 0.0831477 0.0810148"
 xmlns:xlink="http://www.w3.org/1999/xlink">
 <defs>
  <style type="text/css">
   <![CDATA[
    .fil0 {fill:#8DBD40}
   ]]>
  </style>
 </defs>
 <g id="Layer_x0020_1">
  <metadata id="CorelCorpID_0Corel-Layer"/>
  <g id="_777119336">
   <path id="_777119384" class="fil0" d="M0.0160933 0.0332028c-0.00132628,0 -0.00262237,-0.000389746 -0.00372512,-0.00111937 -0.00110275,-0.000729626 -0.00196229,-0.00176676 -0.00246971,-0.00298018 -0.000507414,-0.00121342 -0.000640391,-0.00254844 -0.000381873,-0.00383666 0.000258956,-0.00128822 0.000897598,-0.00247146 0.00183544,-0.00340011 0.000937841,-0.000928655 0.00213245,-0.00156117 0.00343292,-0.00181707 0.0013009,-0.000256332 0.00264905,-0.000125104 0.00387428,0.000377936 0.00122567,0.000502165 0.00227243,0.0013534 0.00300949,0.00244565 0.000736625,0.00109182 0.00112987,0.00237566 0.00112987,0.00368925 -2.18713e-006,0.00176064 -0.000709067,0.00344823 -0.00196623,0.00469314 -0.00125716,0.00124491 -0.00296137,0.00194523 -0.00473907,0.00194742zm0 -0.0106251c-0.000795678,0 -0.00157342,0.000233585 -0.00223525,0.000671449 -0.000661388,0.000437863 -0.00117711,0.00106032 -0.00148156,0.0017882 -0.000304448,0.000727877 -0.00038406,0.00152924 -0.000229211,0.00230217 0.000155286,0.000772932 0.000538471,0.00148287 0.00110144,0.00204015 0.00056253,0.000557281 0.00127947,0.000936529 0.00205984,0.00109007 0.000780368,0.000153974 0.00158917,7.52373e-005 0.00232448,-0.000226587 0.000734875,-0.000301386 0.00136346,-0.0008123 0.00180569,-0.00146756 0.0004418,-0.000655264 0.00067801,-0.00142557 0.00067801,-0.00221337 0,-0.00105682 -0.000423866,-0.00207034 -0.00117843,-0.00281746 -0.00075456,-0.000747123 -0.0017777,-0.00116705 -0.00284502,-0.00116705z"/>
   <path id="_777119456" class="fil0" d="M0.0120703 0.0610931l-0.0107287 0c-0.000355627,0 -0.000696819,-0.000139976 -0.000948339,-0.000388872 -0.00025152,-0.000248895 -0.000392808,-0.000587026 -0.000392808,-0.000939153 -3.93683e-006,-0.00367875 0.000704693,-0.00732382 0.00208827,-0.0107379l0.00438126 -0.0108495c0.000586151,-0.0014505 0.00166659,-0.00265255 0.00305411,-0.00339661 0.00138751,-0.000744499 0.00299418,-0.000984208 0.00454179,-0.000677573 0.000901972,0.000179782 0.00175758,0.000539784 0.00251432,0.0010577 0.000757184,0.00051835 0.00139933,0.00118367 0.00188837,0.00195573l0.00513494 0.00813962 0.00630287 0.000891474c0.00105638,0.00014785 0.00201653,0.000687196 0.00268667,0.00150868 0.000670574,0.000821486 0.00100171,0.00186431 0.000926031,0.00291807 -7.52373e-005,0.00105332 -0.000551157,0.00203972 -0.00133196,0.00275928 -0.000780805,0.000719566 -0.00180788,0.00111937 -0.00287476,0.0011185l-0.0105367 0c-0.000249333,0 -0.000493416,-6.82384e-005 -0.000705568,-0.000198154 -0.000212152,-0.000129915 -0.000383185,-0.000315384 -0.000494729,-0.000536284l-0.00222344 -0.004404 -0.0019636 0.0106889c-5.59905e-005,0.000305761 -0.000218713,0.000582214 -0.000459735,0.000781243 -0.000240584,0.000199466 -0.000544595,0.000308823 -0.00085823,0.000308823zm-0.00935435 -0.00265605l0.00823454 0 0.00248327 -0.0135191c5.07414e-005,-0.000273829 0.000187218,-0.000525348 0.000389746,-0.000718691 0.000202966,-0.000192905 0.000461922,-0.000318009 0.000740562,-0.000357377 0.000278203,-3.93683e-005 0.000562092,8.74852e-006 0.000811425,0.000138227 0.000249333,0.000129041 0.000450986,0.000332881 0.000576965,0.000581776l0.00365163 0.00723459 0.00970823 0c0.000386684,-8.74852e-007 0.000758934,-0.000146538 0.00104151,-0.000407681 0.000283015,-0.000261143 0.000455798,-0.00061852 0.000483356,-0.00100039 2.75578e-005,-0.00038231 -9.1422e-005,-0.000760684 -0.000333756,-0.00105901 -0.000242334,-0.000298324 -0.00058965,-0.000495166 -0.000972398,-0.000550282l-0.0069227 -0.000980271c-0.000193342,-2.75578e-005 -0.000377936,-9.66711e-005 -0.000541533,-0.000202091 -0.000163597,-0.00010542 -0.000301824,-0.000244958 -0.000405494,-0.000408993l-0.00546739 -0.00866322c-0.000398495,-0.000631206 -0.000966274,-0.00114124 -0.00163947,-0.00147281 -0.000673198,-0.000331569 -0.00142601,-0.000471983 -0.00217488,-0.000405494 -0.000749311,6.60513e-005 -0.00146494,0.000336818 -0.00206815,0.000781243 -0.00060321,0.000444425 -0.00107082,0.00104589 -0.0013499,0.00173702l-0.00438257 0.0108482c-0.00108788,0.00268667 -0.00171733,0.00553344 -0.001863,0.00842439z"/>
   <path id="_777119624" class="fil0" d="M0.0670543 0.0332028c-0.00132628,0 -0.00262281,-0.000389746 -0.00372512,-0.00111937 -0.00110275,-0.000729626 -0.00196229,-0.00176676 -0.00246971,-0.00298018 -0.000507414,-0.00121342 -0.000640391,-0.00254844 -0.000381873,-0.00383666 0.000258956,-0.00128822 0.000897598,-0.00247146 0.00183544,-0.00340011 0.000937841,-0.000928655 0.00213245,-0.00156117 0.00343336,-0.00181707 0.00130047,-0.000256332 0.00264861,-0.000125104 0.00387384,0.000377936 0.00122523,0.000502165 0.00227286,0.0013534 0.00300949,0.00244565 0.000736625,0.00109182 0.00112987,0.00237566 0.00112987,0.00368925 -1.7497e-006,0.00176064 -0.000709067,0.00344823 -0.00196623,0.00469314 -0.00125716,0.00124491 -0.00296137,0.00194523 -0.00473907,0.00194742zm0 -0.0106251c-0.000795678,0 -0.00157342,0.000233585 -0.00223525,0.000671449 -0.000661388,0.000437863 -0.00117711,0.00106032 -0.00148156,0.0017882 -0.000304448,0.000727877 -0.000384497,0.00152924 -0.000229211,0.00230217 0.000155286,0.000772932 0.000538471,0.00148287 0.001101,0.00204015 0.000562967,0.000557281 0.00127991,0.000936529 0.00206028,0.00109007 0.000780368,0.000153974 0.00158917,7.52373e-005 0.00232448,-0.000226587 0.000735313,-0.000301386 0.00136346,-0.0008123 0.00180569,-0.00146756 0.0004418,-0.000655264 0.00067801,-0.00142557 0.00067801,-0.00221337 0,-0.00105682 -0.000423866,-0.00207034 -0.00117843,-0.00281746 -0.00075456,-0.000747123 -0.00177814,-0.00116705 -0.00284502,-0.00116705z"/>
   <path id="_777119696" class="fil0" d="M0.0818061 0.0610931l-0.0107283 0c-0.000314072,0 -0.000617645,-0.000109356 -0.000858667,-0.000308823 -0.000241022,-0.000199029 -0.000403744,-0.000475482 -0.000459735,-0.000781243l-0.00196317 -0.0106889 -0.00221687 0.004404c-0.000111981,0.000221775 -0.000284327,0.000408118 -0.000497791,0.000538034 -0.000213464,0.000129915 -0.00045886,0.000197717 -0.000709505,0.000196404l-0.0105367 0c-0.00106688,2.18713e-006 -0.00209483,-0.000397183 -0.00287651,-0.00111631 -0.000781243,-0.000719566 -0.00125847,-0.00170552 -0.00133415,-0.00275972 -7.61121e-005,-0.0010542 0.000254582,-0.00209702 0.000925156,-0.00291938 0.000670574,-0.000821923 0.00163116,-0.00136127 0.00268754,-0.00150912l0.00630287 -0.000891474 0.00513757 -0.00813962c0.000489042,-0.000772057 0.00113162,-0.00143738 0.00188837,-0.00195573 0.000757184,-0.000517912 0.00161279,-0.000877914 0.00251476,-0.0010577 0.00154718,-0.00030751 0.00315428,-6.82384e-005 0.00454223,0.00067626 0.00138751,0.000744499 0.00246796,0.00194698 0.00305367,0.00339792l0.00438126 0.0108495c0.00138358,0.00341411 0.00209265,0.00705918 0.00208915,0.0107379 0,0.000352128 -0.000141289,0.000690258 -0.000392808,0.000939153 -0.00025152,0.000248895 -0.000592275,0.000388872 -0.000948339,0.000388872zm-0.0096085 -0.00265605l0.0082341 0c-0.000145663,-0.00289095 -0.000775119,-0.00573772 -0.001863,-0.00842439l-0.00438257 -0.0108482c-0.000279078,-0.000691133 -0.000745811,-0.00129259 -0.00134902,-0.00173746 -0.00060321,-0.000444425 -0.00131884,-0.000714754 -0.00206771,-0.000781243 -0.000749311,-6.60513e-005 -0.00150212,7.43624e-005 -0.00217532,0.000405931 -0.000673198,0.000331569 -0.00124054,0.00084117 -0.00163903,0.00147281l-0.0054687 0.00866322c-0.00010367,0.000164035 -0.000241897,0.000303574 -0.000405494,0.000408993 -0.000163597,0.00010542 -0.000348191,0.000174533 -0.000541533,0.000202091l-0.0069227 0.000980271c-0.000382748,5.51157e-005 -0.000730064,0.000251957 -0.00097196,0.000550282 -0.000242334,0.000298324 -0.000361751,0.000676698 -0.000334193,0.00105901 2.79953e-005,0.000381873 0.000200341,0.00073925 0.000483356,0.00100039 0.000282577,0.000261143 0.000654827,0.000406806 0.00104151,0.000407681l0.00970823 0 0.00365163 -0.00723459c0.000125979,-0.000248895 0.000327632,-0.000452736 0.000576965,-0.000581776 0.000249333,-0.000129478 0.000533222,-0.000177595 0.000811862,-0.000138227 0.000278203,3.93683e-005 0.000537596,0.000164472 0.000740125,0.000357377 0.000202966,0.000193342 0.000339005,0.000444862 0.000389746,0.000718691l0.0024837 0.0135191z"/>
   <path id="_777119768" class="fil0" d="M0.0585171 0.0416548l-0.00176633 -0.00446787 -0.0303539 0 -0.00124054 0.00313984 -0.00249158 -0.000966711 0.00157298 -0.00398451c9.79834e-005,-0.00024802 0.000268579,-0.000461047 0.000490354,-0.000611521 0.000221775,-0.000150912 0.000483793,-0.000231836 0.00075281,-0.000233148l0.0321858 0c0.000269892,0 0.00053366,8.04864e-005 0.000756747,0.000230961 0.000223087,0.000150912 0.000394996,0.000364813 0.000493416,0.000613709l0.00209877 0.00531254 -0.00249858 0.000966711z"/>
   <path id="_777119912" class="fil0" d="M0.0415738 0.0664056c-0.00213333,-2.18713e-006 -0.00417873,-0.000842482 -0.00568741,-0.00233629 -0.00150824,-0.00149381 -0.00235685,-0.00351953 -0.00235904,-0.0056323l0 -0.00132802c0,-0.00211364 0.000847731,-0.00414067 0.00235685,-0.00563492 0.00150912,-0.00149425 0.0035554,-0.0023341 0.0056896,-0.0023341 0.0021342,0 0.00418092,0.000839858 0.0056896,0.0023341 0.00150912,0.00149425 0.00235685,0.00352128 0.00235685,0.00563492l0 0.00132802c-2.18713e-006,0.00211277 -0.000850356,0.00413849 -0.00235904,0.0056323 -0.00150868,0.00149381 -0.00355409,0.0023341 -0.00568741,0.00233629zm0 -0.0146091c-0.00142251,0 -0.00278684,0.000559468 -0.00379292,0.00155592 -0.00100608,0.000996019 -0.00157123,0.00234766 -0.00157123,0.00375661l0 0.00132802c0,0.00140895 0.000565154,0.00276016 0.00157123,0.00375618 0.00100608,0.000996456 0.00237041,0.00155636 0.00379292,0.00155636 0.00142295,0 0.00278728,-0.000559905 0.00379336,-0.00155636 0.00100564,-0.000996019 0.0015708,-0.00234723 0.0015708,-0.00375618l0 -0.00132802c0,-0.00140895 -0.000565154,-0.00276059 -0.0015708,-0.00375661 -0.00100608,-0.000996456 -0.00237041,-0.00155592 -0.00379336,-0.00155592z"/>
   <path id="_777119936" class="fil0" d="M0.0563256 0.0810148l-0.00268186 0 0 -0.00664056c0,-0.00105638 -0.000423866,-0.0020699 -0.00117843,-0.00281746 -0.00075456,-0.000747123 -0.0017777,-0.00116661 -0.00284502,-0.00116661l-0.0160929 0c-0.00106688,0 -0.00209046,0.000419491 -0.00284502,0.00116661 -0.000754122,0.000747561 -0.00117799,0.00176108 -0.00117799,0.00281746l0 0.00664056 -0.0026823 0 0 -0.00664056c2.18713e-006,-0.00176064 0.000709067,-0.00344823 0.00196623,-0.00469314 0.00125716,-0.00124491 0.00296137,-0.00194523 0.00473907,-0.00194742l0.0160929 0c0.0017777,2.18713e-006 0.00348191,0.000702506 0.00473907,0.00194742 0.00125716,0.00124491 0.00196448,0.0029325 0.00196623,0.00469314l0 0.00664056z"/>
   <path id="_777120008" class="fil0" d="M0.0697366 0.0730462l-0.0120699 0 0 -0.00265605 0.0107287 0 0 -0.00373474 -0.00410655 -0.0103915 0.00249858 -0.000966711 0.00419885 0.0106251c6.08022e-005,0.000153974 9.1422e-005,0.000318009 9.1422e-005,0.000483356l0 0.00531254c0,0.000352128 -0.000141289,0.000689821 -0.000392808,0.000939153 -0.00025152,0.000248895 -0.000592712,0.000388872 -0.000948339,0.000388872z"/>
   <path id="_777120200" class="fil0" d="M0.0254809 0.0730462l-0.0120699 0c-0.000355627,0 -0.000696382,-0.000139976 -0.000947902,-0.000388872 -0.00025152,-0.000249333 -0.000392808,-0.000587026 -0.000392808,-0.000939153l0 -0.00531254c-4.37426e-007,-0.000165347 3.06198e-005,-0.000329382 9.09846e-005,-0.000483356l0.00419885 -0.0106251 0.00249989 0.000966711 -0.00410787 0.0103915 0 0.00373474 0.0107287 0 0 0.00265605z"/>
   <path id="_777124448" class="fil0" d="M0.0791242 0.0358589l-0.0026823 0 0 -0.0332028 -0.0697362 0 0 0.0332028 -0.00268186 0 0 -0.0345308c0,-0.000352128 0.000141289,-0.000689821 0.000392808,-0.000939153 0.000251082,-0.000248895 0.000592275,-0.000388872 0.000947902,-0.000388872l0.0724185 0c0.000355627,0 0.000696819,0.000139976 0.000948339,0.000388872 0.00025152,0.000249333 0.000392808,0.000587026 0.000392808,0.000939153l0 0.0345308z"/>
   <path id="_777895056" class="fil0" d="M0.02777 0.027501l-0.00189624 -0.00187787 0.0093876 -0.00929661c0.00025152,-0.000248895 0.000592712,-0.000388872 0.000948339,-0.000388872 0.000355627,0 0.000696382,0.000139976 0.000947902,0.000388872l0.00709855 0.00702987 0.0164857 -0.0163269 0.00189624 0.00187831 -0.017434 0.0172652c-0.00025152,0.000248895 -0.000592275,0.000388872 -0.000947902,0.000388872 -0.000355627,0 -0.000696819,-0.000139976 -0.000948339,-0.000388872l-0.00709811 -0.00702943 -0.0084397 0.00835746z"/>
   <path id="_777894840" class="fil0" d="M0.0630309 0.0159372l-0.00268186 0 0 -0.00664056 -0.0067053 0 0 -0.00265605 0.00804645 0c0.000355627,0 0.000696819,0.000139976 0.000948339,0.000388872 0.00025152,0.000249333 0.000392371,0.000587026 0.000392371,0.000939153l0 0.00796859z"/>
   <polygon id="_263095496" class="fil0" points="0.013411,0.00664056 0.0295044,0.00664056 0.0295044,0.00929661 0.013411,0.00929661 "/>
   <polygon id="_777892632" class="fil0" points="0.013411,0.0119531 0.0227986,0.0119531 0.0227986,0.0146091 0.013411,0.0146091 "/>
  </g>
 </g>
</svg>
