<?xml version="1.0" encoding="UTF-8"?>
<!DOCTYPE svg PUBLIC "-//W3C//DTD SVG 1.1//EN" "http://www.w3.org/Graphics/SVG/1.1/DTD/svg11.dtd">
<!-- Creator: CorelDRAW -->
<svg xmlns="http://www.w3.org/2000/svg" xml:space="preserve" width="0.721213in" height="0.729165in" style="shape-rendering:geometricPrecision; text-rendering:geometricPrecision; image-rendering:optimizeQuality; fill-rule:evenodd; clip-rule:evenodd"
viewBox="0 0 0.137366 0.138881"
 xmlns:xlink="http://www.w3.org/1999/xlink">
 <defs>
  <style type="text/css">
   <![CDATA[
    .fil0 {fill:#8DBD40}
   ]]>
  </style>
 </defs>
 <g id="Layer_x0020_1">
  <metadata id="CorelCorpID_0Corel-Layer"/>
  <g id="_777125336">
   <path id="_777114752" class="fil0" d="M0.0694343 0.0492338l-0.0520758 0c-0.0011233,0 -0.00203438,0.000911084 -0.00203438,0.00203363 0,0.00112405 0.000911084,0.00203438 0.00203438,0.00203438l0.0520765 0c0.0011233,0 0.00203363,-0.000910334 0.00203363,-0.00203438 0,-0.00112255 -0.000910334,-0.00203363 -0.00203438,-0.00203363z"/>
   <path id="_492452248" class="fil0" d="M0.0694343 0.0635277l-0.0520758 0c-0.0011233,0 -0.00203438,0.000911084 -0.00203438,0.00203438 0,0.00112255 0.000911084,0.00203363 0.00203438,0.00203363l0.0520765 0c0.0011233,0 0.00203363,-0.000911084 0.00203363,-0.00203363 0,-0.0011233 -0.000910334,-0.00203438 -0.00203438,-0.00203438z"/>
   <path id="_492452920" class="fil0" d="M0.0694343 0.0778216l-0.0520758 0c-0.0011233,0 -0.00203438,0.000910334 -0.00203438,0.00203363 0,0.0011233 0.000911084,0.00203438 0.00203438,0.00203438l0.0520765 0c0.0011233,0 0.00203363,-0.000911084 0.00203363,-0.00203438 0,-0.0011233 -0.000910334,-0.00203363 -0.00203438,-0.00203363z"/>
   <path id="_260324904" class="fil0" d="M0.0714687 0.0941491c0,-0.0011233 -0.000910334,-0.00203363 -0.00203363,-0.00203363l-0.0520765 0c-0.0011233,0 -0.00203438,0.000911084 -0.00203438,0.00203363 0,0.00112405 0.000911084,0.00203438 0.00203438,0.00203438l0.0520765 0c0.0011233,0 0.00203363,-0.000910334 0.00203363,-0.00203438z"/>
   <path id="_777120368" class="fil0" d="M0.0173586 0.113063c-0.0011233,0 -0.00203438,0.000911084 -0.00203438,0.00203438 0,0.0011233 0.000911084,0.00203438 0.00203438,0.00203438l0.026105 0c0.0011233,0 0.00203363,-0.000911084 0.00203363,-0.00203438 0,-0.0011233 -0.000910334,-0.00203438 -0.00203363,-0.00203438l-0.026105 0z"/>
   <path id="_777124160" class="fil0" d="M0.0928766 0.0251864l0 -0.0066003c0,-0.00251504 -0.00204563,-0.00456067 -0.00456067,-0.00456067l-0.0417636 0c-0.00251429,0 -0.00455992,0.00204563 -0.00455992,0.00456067l0 0.0066003c0,0.00251429 0.00204563,0.00455992 0.00455992,0.00455992l0.00352661 0c0.00112405,0 0.00203438,-0.000911084 0.00203438,-0.00203363 0,-0.00112405 -0.000910334,-0.00203438 -0.00203438,-0.00203438l-0.00352661 0c-0.000270701,0 -0.000491161,-0.00022046 -0.000491161,-0.00049191l0 -0.0066003c0,-0.000271451 0.00022046,-0.00049191 0.000491161,-0.00049191l0.0417636 0c0.000271451,0 0.00049191,0.00022046 0.00049191,0.00049191l0 0.0066003c0,0.000270701 -0.00022046,0.00049191 -0.00049191,0.00049191l-0.0287265 0c-0.0011233,0 -0.00203438,0.000910334 -0.00203438,0.00203363 0,0.0011233 0.000911084,0.00203438 0.00203438,0.00203438l0.0287273 0c0.00251429,7.49863e-007 0.00455992,-0.00204563 0.00455992,-0.00455992z"/>
   <path id="_777892656" class="fil0" d="M0.108087 0.124042c-0.0011233,0 -0.00203438,0.000910334 -0.00203438,0.00203363l0 0.00274c0,0.00330615 -0.00268976,0.00599666 -0.00599666,0.00599666l-0.0899911 0c-0.00330615,0 -0.00599666,-0.00269051 -0.00599666,-0.00599666l0 -0.0977769c0,-0.00044092 5.17406e-005,-0.000872841 0.000143224,-0.00129276l0.0185224 0c0.00386705,0 0.00701272,-0.00314568 0.00701272,-0.00701272l0 -0.0185216c0.000419923,-9.22332e-005 0.000851845,-0.000143974 0.00129201,-0.000143974l0.0690174 0c0.00330615,0 0.00599666,0.00269051 0.00599666,0.00599666l0 0.0270828c0,0.0011233 0.000910334,0.00203363 0.00203363,0.00203363 0.00112405,0 0.00203438,-0.000910334 0.00203438,-0.00203363l0 -0.0270828c0,-0.00554974 -0.00451493,-0.0100647 -0.0100647,-0.0100647l-0.0690167 0c-0.00268901,0 -0.0052168,0.00104681 -0.0071177,0.00294771l-0.0209737 0.0209744c-0.0019009,0.0019009 -0.00294771,0.00442794 -0.00294771,0.00711695l0 0.0977769c0,0.00554974 0.00451493,0.0100647 0.0100647,0.0100647l0.0899911 0c0.00554974,0 0.0100647,-0.00451493 0.0100647,-0.0100647l0 -0.00273925c0,-0.00112405 -0.000910334,-0.00203438 -0.00203363,-0.00203438zm-0.0824085 -0.117097l0 0.0157884c0,0.00162345 -0.00132126,0.00294471 -0.00294471,0.00294471l-0.0157884 0 0.0187331 -0.0187331z"/>
   <path id="_777125432" class="fil0" d="M0.135948 0.0726948c0.00142774,-0.00209587 0.00179742,-0.00468065 0.00101382,-0.00709296 -0.000783607,-0.00241156 -0.00260278,-0.00428622 -0.00498959,-0.00514256 -0.00158371,-0.000567647 -0.00264027,-0.00202163 -0.00269051,-0.00370358 -7.64861e-005,-0.00253454 -0.00129801,-0.00484337 -0.00334964,-0.0063341 -0.00205163,-0.00149073 -0.00462516,-0.0019384 -0.00705846,-0.00122828 -0.00161671,0.000471664 -0.00332489,-8.39847e-005 -0.00435371,-0.00141424 -0.00155222,-0.00200588 -0.00389704,-0.00315617 -0.00643308,-0.00315617 -0.00253604,0 -0.00488086,0.00115029 -0.00643308,0.00315617 -0.00102956,0.00133101 -0.0027385,0.00188516 -0.00435371,0.00141424 -0.00243406,-0.000710121 -0.00500684,-0.000262452 -0.00705921,0.00122828 -0.00205163,0.00149073 -0.0032724,0.00379881 -0.00334964,0.0063341 -5.02408e-005,0.00168119 -0.0011068,0.00313518 -0.00269051,0.00370358 -0.00238682,0.000856344 -0.00420523,0.002731 -0.00498884,0.00514256 -0.000783607,0.00241156 -0.000414674,0.00499709 0.00101307,0.00709296 0.000947827,0.001391 0.000947827,0.00318767 0,0.00457792 -0.00142774,0.00209587 -0.00179667,0.0046814 -0.00101307,0.00709296 0.000783607,0.00241231 0.00260203,0.00428697 0.00498884,0.00514331 0.00158371,0.000567647 0.00264027,0.00202163 0.00269051,0.00370358 7.1237e-005,0.00233133 0.00113979,0.00452243 0.00293272,0.00601015 0.00118253,0.000982321 0.00260428,0.00159646 0.00409125,0.00180192l0 0.0185201c0,0.00156272 0.000847346,0.00300695 0.0022121,0.00376956 0.00136175,0.000761111 0.00303695,0.000727367 0.0043687,-9.29831e-005l0.00746114 -0.00459291c0.000121478,-7.49863e-005 0.000193465,-4.12425e-005 0.000260952,0l0.00745964 0.00459291c0.00133176,0.000819601 0.00300545,0.000854844 0.00436945,9.22332e-005 0.00136475,-0.000761861 0.0022121,-0.00220685 0.0022121,-0.00376881l0 -0.0185209c0.00148623,-0.000205463 0.00290797,-0.000819601 0.0040905,-0.00180117 0.00179292,-0.00148773 0.00286223,-0.00367883 0.00293272,-0.0060109 5.02408e-005,-0.00168119 0.00110755,-0.00313518 0.00269051,-0.00370358 0.00238756,-0.000855594 0.00420598,-0.00273025 0.00498959,-0.00514256 0.000783607,-0.00241156 0.000413925,-0.00499709 -0.00101382,-0.00709296 -0.000948577,-0.00139025 -0.000948577,-0.00318692 -7.49863e-007,-0.00457792zm-0.0181377 0.0470622l-0.00746039 -0.00459291c-0.00138725,-0.000853345 -0.00313818,-0.000854844 -0.00452618,0l-0.00746114 0.00459291c-0.000169469,0.000103481 -0.000379431,-1.57471e-005 -0.000379431,-0.000212211l0 -0.0189063c0.0013985,-0.00016197 0.00278574,0.000407176 0.00367058,0.00155072 0.00155222,0.00200588 0.00389704,0.00315617 0.00643308,0.00315617 0.00253604,0 0.00488086,-0.00115029 0.00643308,-0.00315617 0.000884839,-0.00114429 0.00227209,-0.00171269 0.00366983,-0.00155072l0 0.0189063c0,0.000197964 -0.000212211,0.000315692 -0.000379431,0.000212211zm0.0147753 -0.0401927c0.00071387,0.00104756 0.000899086,0.00233957 0.000506908,0.0035446 -0.000391429,0.00120578 -0.00130026,0.00214236 -0.00249405,0.00257053 -0.00316892,0.00113679 -0.00528129,0.00404476 -0.00538327,0.00741015 -3.59934e-005,0.00118328 -0.000556399,0.00224884 -0.00146373,0.00300245 -0.00102056,0.000847346 -0.00240331,0.00116679 -0.00373807,0.000777608 -0.00323191,-0.000943328 -0.00665129,0.000167969 -0.00871191,0.00282998 -0.000775359,0.00100257 -0.0019474,0.00157696 -0.00321541,0.00157696 -0.00126652,0 -0.00243931,-0.000574395 -0.00321466,-0.00157696 -0.00157321,-0.00203363 -0.00393903,-0.00316142 -0.00640833,-0.00316142 -0.000764111,0 -0.00153872,0.00010798 -0.00230283,0.00033069 -0.00134825,0.000392928 -0.0027265,6.37384e-005 -0.00373882,-0.000776858 -0.000908085,-0.000753613 -0.00142774,-0.00181992 -0.00146373,-0.00300245 -0.000101981,-0.00336539 -0.0022151,-0.00627336 -0.00538402,-0.00741015 -0.00119303,-0.000428172 -0.00210112,-0.00136475 -0.0024933,-0.00257053 -0.000391429,-0.00120503 -0.000207712,-0.00249779 0.000506908,-0.00354535 0.0018949,-0.00278199 0.0018949,-0.00637684 0,-0.00915883 -0.00071462,-0.00104756 -0.000898336,-0.00234032 -0.000506908,-0.0035461 0.000391429,-0.00120503 0.00130026,-0.00214236 0.0024933,-0.00256978 0.00316892,-0.00113679 0.00528204,-0.00404551 0.00538402,-0.00741015 3.8243e-005,-0.00126727 0.000648632,-0.00242131 0.0016737,-0.00316592 0.00102506,-0.000745364 0.00231108,-0.000968823 0.00352886,-0.000614138 0.00323041,0.000943328 0.00665054,-0.000167969 0.00871116,-0.00282998 0.000775359,-0.00100257 0.0019474,-0.00157771 0.00321466,-0.00157771 0.00126802,0 0.00243931,0.000575145 0.00321541,0.00157771 0.00205987,0.00266201 0.00547925,0.00377331 0.00871116,0.00282998 0.00121703,-0.000355435 0.00250229,-0.000131226 0.00352811,0.000613388 0.00102581,0.000745364 0.0016362,0.0018994 0.00167444,0.00316592 0.000101981,0.00336539 0.00221435,0.00627411 0.00538327,0.0074109 0.00119378,0.000427422 0.00210187,0.001364 0.00249405,0.00256978 0.000392179,0.00120578 0.000206962,0.00249779 -0.000506908,0.00354535 -0.00189565,0.00278274 -0.00189565,0.00637759 0,0.00916033z"/>
   <path id="_263930808" class="fil0" d="M0.108087 0.0579344c-0.00940104,0 -0.0170496,0.00764861 -0.0170496,0.0170496 0,0.00940104 0.00764861,0.0170489 0.0170496,0.0170489 0.00940029,0 0.0170489,-0.00764786 0.0170489,-0.0170489 0,-0.00940104 -0.00764861,-0.0170496 -0.0170489,-0.0170496zm0 0.0300305c-0.0071582,0 -0.0129809,-0.00582344 -0.0129809,-0.0129809 0,-0.00715745 0.00582269,-0.0129809 0.0129809,-0.0129809 0.00715745,0 0.0129809,0.00582344 0.0129809,0.0129809 0,0.0071582 -0.00582344,0.0129809 -0.0129809,0.0129809z"/>
  </g>
 </g>
</svg>
