<?xml version="1.0" encoding="UTF-8"?>
<!DOCTYPE svg PUBLIC "-//W3C//DTD SVG 1.1//EN" "http://www.w3.org/Graphics/SVG/1.1/DTD/svg11.dtd">
<!-- Creator: CorelDRAW -->
<svg xmlns="http://www.w3.org/2000/svg" xml:space="preserve" width="0.583331in" height="0.583331in" style="shape-rendering:geometricPrecision; text-rendering:geometricPrecision; image-rendering:optimizeQuality; fill-rule:evenodd; clip-rule:evenodd"
viewBox="0 0 0.050622 0.050622"
 xmlns:xlink="http://www.w3.org/1999/xlink">
 <defs>
  <style type="text/css">
   <![CDATA[
    .fil0 {fill:#8DBD40}
   ]]>
  </style>
 </defs>
 <g id="Layer_x0020_1">
  <metadata id="CorelCorpID_0Corel-Layer"/>
  <path class="fil0" d="M0.0498058 0.0457233l-0.0102511 0 0.00523863 -0.0186265 0.00537734 -0.00268884c0.000403156,-0.000201578 0.000566468,-0.000692539 0.00036489,-0.0010957l-0.00163312 -0.0032659c-0.000101814,-0.000203286 -0.000283917,-0.000355324 -0.000501895,-0.000418872 -0.000220711,-6.62815e-005 -0.000453379,-3.34824e-005 -0.000648466,8.40477e-005l-0.00797052 0.00478286 -0.00957153 0c-0.000451671,0 -0.000816561,0.00036489 -0.000816561,0.000816561l0 0.0032659c0,0.000451671 0.00036489,0.000816561 0.000816561,0.000816561l0.00815809 0 -0.00459256 0.0163299 -0.00111619 0c0,-0.00156274 -0.00110287,-0.00287265 -0.00257029,-0.00319176l-0.00152516 -0.0083853c-1.4008e-005,-7.68729e-005 -3.82656e-005,-0.000150329 -7.2773e-005,-0.000219686l-0.00474767 -0.00949568 8.30227e-005 -0.00025146c8.91726e-005,-0.000266151 0.00016912,-0.000535035 0.000250093,-0.000803578 0.000440055,0.00019372 0.000915983,0.000302025 0.00141002,0.000302025 0.000661449,0 0.00130718,-0.000185178 0.00186716,-0.000535377l0.00513408 -0.00320816c0.000703131,-0.000440738 0.00112371,-0.00119922 0.00112371,-0.00202808 0,-0.00131948 -0.00107315,-0.00239297 -0.00239331,-0.00239297 -0.000733197,0 -0.0014435,0.000215244 -0.00205336,0.000621816l-0.00340222 0.00226826 -0.000543235 -0.00108579c6.04733e-005,-0.000757796 9.15642e-005,-0.00151935 9.15642e-005,-0.00228295 0,-0.000817244 -0.000275034,-0.00159041 -0.000773171,-0.00222248 0.00233591,-0.000718505 0.00403907,-0.00289589 0.00403907,-0.00546378l0 -0.00163312c0,-0.00315076 -0.00256448,-0.00571524 -0.00571524,-0.00571524 -0.00315076,0 -0.00571559,0.00256448 -0.00571559,0.00571524l0 0.00163312c0,0.00160989 0.00067204,0.00306398 0.00174724,0.00410433 -0.000863026,5.39819e-005 -0.00169496,0.000367623 -0.00236119,0.000922816l-0.00399192 0.00332638c-0.000256926,0.000215586 -0.000357374,0.000566468 -0.00025146,0.000885576l0.00294201 0.00882467c4.7832e-006,1.46913e-005 1.22997e-005,2.69909e-005 1.70829e-005,4.09989e-005l-0.00203628 0.00814511c-0.00261026,0.000575009 -0.00510949,0.00153848 -0.00743344,0.00286753l-0.00210085 0.00120024c-0.000254535,0.000145546 -0.000411355,0.000415797 -0.000411355,0.000708939l0 0.00489868c0,0.000451671 0.00036489,0.000816561 0.000816561,0.000816561l0.000816219 0c0.00157743,0 0.00289691,-0.00112337 0.00320065,-0.00261197l0.00924422 -0.00231131c0.000271276,-6.69648e-005 0.000489253,-0.000268884 0.000576718,-0.000533327l0.0019864 -0.00595782 0.00295807 0.00355016c6.11567e-005,0.00261334 0.0009235,0.00518943 0.00244627,0.00731557l0 0.00218182 -0.0244948 0c-0.000451329,0 -0.000816219,0.00036489 -0.000816219,0.000816219l0 0.00326624c0,0.000451329 0.00036489,0.000816219 0.000816219,0.000816219l0.0489896 0c0.000451329,0 0.000816219,-0.00036489 0.000816219,-0.000816219l0 -0.00326624c0,-0.000451329 -0.00036489,-0.000816219 -0.000816219,-0.000816219zm-0.0128665 0.0032659l-0.00238579 0 0.00551537 -0.0196104c0.000104547,-8.19978e-006 0.000209778,-2.45993e-005 0.000303733,-7.1748e-005l0.00244627 -0.00122313 -0.00587958 0.0209053zm-0.00591272 -0.0228617l0.00898115 0c0.000148621,0 0.000293142,-3.99739e-005 0.00042058,-0.000116847l0.00740884 -0.00444496 0.000872593 0.00174724 -0.00889471 0.00444735 -0.00878845 0 0 -0.00163278zm-0.00578973 -0.00574258c0.00022686,5.979e-005 0.000467729,2.04994e-005 0.000662815,-0.000110014l0.00417129 -0.00278109c0.000341316,-0.000227885 0.000737297,-0.000347807 0.00114729,-0.000347807 0.000418872,0 0.000760188,0.000341316 0.000760188,0.000760188 0,0.000263076 -0.00013393,0.000503603 -0.000357715,0.000644366l-0.00513306 0.00320782c-0.000596875,0.000371382 -0.00137688,0.000357715 -0.00197341,7.51646e-006 0.00012983,-0.000541527 0.000240868,-0.00108613 0.000338582,-0.00163312 0.000105572,0.000115139 0.000229594,0.000210803 0.000384023,0.000252143zm-0.0023752 -0.00895416c-0.000504628,0 -0.00098329,-0.000103864 -0.00142984,-0.000271959l0.00126652 -0.00168779c0.000105914,-0.000141104 0.000163312,-0.000312616 0.000163312,-0.000489937l0 -0.00244934 0.00408246 0 0 0.000816561c0,0.00225084 -0.00183162,0.00408246 -0.00408246,0.00408246zm-0.00408246 -0.00408246l0 -0.00163312c0,-0.00225084 0.00183128,-0.00408246 0.00408246,-0.00408246 0.00197102,0 0.0036202,0.00140524 0.00399978,0.0032659l-0.00481634 0c-0.000451671,0 -0.000816561,0.000365232 -0.000816561,0.000816561l0 0.00299428 -0.00118453 0.00157982c-0.000776587,-0.000743788 -0.00126482,-0.00178413 -0.00126482,-0.00294099zm0.00408246 0.00571524c0,0.000217294 8.5756e-005,0.00042468 0.00023916,0.000577401 0.000372065,0.000372407 0.000577059,0.00086781 0.000577059,0.00139362 0,0.0029116 -0.000461921,0.00578973 -0.00137654,0.0085551l-0.00286821 -0.000409647c-4.57821e-005,-0.000238477 -8.40477e-005,-0.000478662 -0.000150329,-0.000712014l-0.00117974 -0.00412722 0.00253339 -0.00151969c0.000868835,-0.000521711 0.00140865,-0.00147528 0.00140865,-0.00248863 0,-0.000508044 -0.000142813,-0.000978848 -0.00037309,-0.00139533 0.000383681,8.16561e-005 0.00078137,0.000126413 0.00118965,0.000126413zm-0.00884756 0.00353615l0.00356383 -0.00297037c0.000437663,-0.00036489 0.000993881,-0.000565785 0.00156513,-0.000565785 0.000700056,0 0.00126892,0.000569201 0.00126892,0.00126892 0,0.000443471 -0.000235744,0.000860635 -0.00061635,0.00108818l-0.00307013 0.00184222c-0.000316716,0.000189278 -0.000466021,0.000569201 -0.00036489,0.000924183l0.00135125 0.00472922c0.000165704,0.000582184 0.000250776,0.00118384 0.000250776,0.00178789 0,0.000334824 -0.000271959,0.000606783 -0.000606783,0.000606783 -0.000261368,0 -0.000493012,-0.000166729 -0.000576376,-0.000415455l-0.00276537 -0.00829578zm-0.00911542 0.0258573l0 -0.00360858 0.000427072 -0.000243602 0.00118965 0.00238033c-8.16561e-005,0.000823736 -0.000771462,0.00147186 -0.00161672,0.00147186zm0.0195958 -0.00653181c0,-0.000190986 -6.69648e-005,-0.000376506 -0.000188595,-0.000523419l-0.00405718 -0.00486862 -0.00160579 -0.00240937 -0.00135877 0.000905392 0.00141173 0.00211725 -0.00218182 0.0065441 -0.0087273 0.00218251 -0.00103693 -0.00207386c0.00227817,-0.00128019 0.0047282,-0.00219481 0.00729131,-0.00270763 0.000309542,-6.11567e-005 0.000555193,-0.000296217 0.000631041,-0.000602342l0.00192046 -0.00768422c0.000240868,8.84893e-005 0.000496428,0.000139055 0.000763262,0.000139055 0.00118487,0 0.00214766,-0.0009276 0.00222521,-0.00209265l0.00274146 0.000391881 0.00465576 0.00931016 0.00143701 0.00790356 -0.00185998 0c-0.00132666,-0.00190713 -0.00206088,-0.00420717 -0.00206088,-0.00653181zm0.00244968 0.00816493l0.00244934 0c0.000900609,0 0.00163312,0.000732513 0.00163312,0.00163312l-0.00408246 0 0 -0.00163312zm-0.0253113 0.0032659l0.0316839 0 -0.000458846 0.00163312 -0.0312251 0 0 -0.00163312zm0.0473564 0.00163312l-0.0103532 0 0.000458846 -0.00163312 0.0098944 0 0 0.00163312z"/>
 </g>
</svg>
