<?xml version="1.0" encoding="UTF-8"?>
<!DOCTYPE svg PUBLIC "-//W3C//DTD SVG 1.1//EN" "http://www.w3.org/Graphics/SVG/1.1/DTD/svg11.dtd">
<!-- Creator: CorelDRAW -->
<svg xmlns="http://www.w3.org/2000/svg" xml:space="preserve" width="0.572913in" height="0.572913in" style="shape-rendering:geometricPrecision; text-rendering:geometricPrecision; image-rendering:optimizeQuality; fill-rule:evenodd; clip-rule:evenodd"
viewBox="0 0 0.0805266 0.0805266"
 xmlns:xlink="http://www.w3.org/1999/xlink">
 <defs>
  <style type="text/css">
   <![CDATA[
    .fil0 {fill:#8DBD40}
   ]]>
  </style>
 </defs>
 <g id="Layer_x0020_1">
  <metadata id="CorelCorpID_0Corel-Layer"/>
  <path class="fil0" d="M0.0789733 0.05702l-0.00104421 -0.00156493 0 -0.00336561c0,-0.00284046 -0.00067124,-0.00568313 -0.00194012,-0.00822366 -0.00148082,-0.00295777 -0.00376182,-0.00542249 -0.0065984,-0.00712411 -0.00182723,-0.00109623 -0.00391732,-0.0016745 -0.00604558,-0.0016745 -0.00115378,0 -0.0022561,0.000262852 -0.00326268,0.000724917 -0.000799069,-0.000566099 -0.00134193,-0.0014039 -0.00154225,-0.0023557l0.00298267 -0.000813456c0.00660006,-0.00180122 0.0112113,-0.00783519 0.0112113,-0.0146776 0,-0.00703059 -0.0057202,-0.0127502 -0.012805,-0.0127502 -0.00458358,0 -0.00884399,0.00247136 -0.0111183,0.00645121l-0.000783021 0.00137015c-0.00052349,0.000918044 -0.00141331,0.00159094 -0.0024376,0.00184715l-0.00139892 0.000350284c-0.00154723,0.0003857 -0.00262907,0.0017719 -0.00262907,0.00336782 0,0.000927451 0.000361352,0.00180012 0.0010171,0.00245642l9.35198e-005 9.46265e-005 -0.000701675 0.00210281c-0.000271152,0.000819543 -0.000408942,0.00167008 -0.000408942,0.00253002 0,0.00384593 0.00272757,0.00706545 0.00634994,0.0078291 -0.000210281,0.000896462 -0.000655745,0.00173537 -0.00131204,0.00239112l-0.00167893 0.00167948 -0.000449338 0c-0.000932431,0 -0.00181727,0.00023629 -0.00260306,0.000649105l-0.000136129 -6.86181e-005c-0.00484643,-0.00242377 -0.0108311,-0.0024459 -0.0157097,-9.24131e-005 -1.9368e-005,-0.000265065 -4.64832e-005,-0.000529577 -4.64832e-005,-0.000794642l0 -0.0174832 0.00128825 -0.00193293c0.000484754,-0.000726024 0.000823417,-0.00152454 0.001042,-0.0023557l0.0028648 0 0 0.00519505c0,0.00143268 0.00116485,0.00259753 0.00259753,0.00259753l0.00259808 0c0.00143268,0 0.00259753,-0.00116485 0.00259753,-0.00259753l0 -0.0181843c0,-0.00143268 -0.00116485,-0.00259753 -0.00259753,-0.00259753l-0.00259808 0c-0.00143268,0 -0.00259753,0.00116485 -0.00259753,0.00259753l0 0.00519505 -0.00259753 0 0 -0.00259753c0,-0.00143268 -0.00116485,-0.00259753 -0.00259753,-0.00259753 -0.00209008,0 -0.00389684,0.00124011 -0.00472026,0.00302473 -0.000532343,-0.000272812 -0.00113607,-0.000427203 -0.00177411,-0.000427203l-0.00519505 0c-0.0016911,0 -0.00311991,0.00108959 -0.00365779,0.00259753l-0.00283658 0 0 -0.00519505c0,-0.00143268 -0.00116485,-0.00259753 -0.00259753,-0.00259753l-0.00259753 0c-0.00143268,0 -0.00259753,0.00116485 -0.00259753,0.00259753l0 0.0181832c0,0.00143268 0.00116485,0.00259753 0.00259753,0.00259753l0.00259753 0c0.00143268,0 0.00259753,-0.00116485 0.00259753,-0.00259753l0 -0.00519561 0.00272646 0c0.000277793,0.00155221 0.00101544,0.00298101 0.00215483,0.00411985l0.000314315 0.000314315 0 0.0248658c0,0.00536162 0.0041857,0.00990978 0.00952795,0.0103552l0.00704774 0.000587127c0.00158928,0.000845552 0.00337557,0.00131979 0.00521055,0.00131979 0.00119639,0 0.00237839,-0.000190913 0.00351059,-0.000568866l0.000467599 -0.000156051c0.000349731,0.00109236 0.000774167,0.00216147 0.00128714,0.00318742 0.000997729,0.00198716 0.00152233,0.00421337 0.00152233,0.00643959l0 0.00916549c0,0.002929 0.00238337,0.00531181 0.00531237,0.00531181 0.00182447,0 0.00365225,-0.000431076 0.00527972,-0.00124675l0.00550162 -0.00275081 0.0169265 -0.00597309c0.00355597,-0.00125726 0.00594432,-0.00463283 0.00594432,-0.0084035 0,-0.00183387 -0.000537324,-0.00360909 -0.00155331,-0.00513252zm-0.0452044 -0.0544224l0.00259808 0 2.21349e-006 0.0181832 -0.00260029 0 0 -0.0181832zm-0.00259753 0.00779258l0 0.00259753 -0.00259753 0 0 -0.00259753 0.00259753 0zm0.0288118 -0.00259753c0.00559791,0 0.0101527,0.0045548 0.0101527,0.0101527 0,0.00567317 -0.00382214,0.010679 -0.00929554,0.0121714l-0.00239333 0.000652979 0 -0.00295722 0.00270931 -0.00270931c0.000754246,-0.000754799 0.00118698,-0.00179901 0.00118698,-0.00286646 0,-0.00219523 -0.00175474,-0.0039887 -0.00393558,-0.00405234 -0.000302694,-0.00303137 -0.00235238,-0.00563056 -0.00528857,-0.00660947l-0.000852192 -0.000284433c0.00191688,-0.00218471 0.00470587,-0.00349786 0.00771621,-0.00349786zm-0.0132256 0.0317087l0.00167893 -0.00167893c0.0011001,-0.0011001 0.00182779,-0.00253168 0.00209673,-0.004054l0.00271816 0 0 -0.00259753 -0.00368601 0c-0.00298101,0 -0.00540589,-0.00242487 -0.00540589,-0.00540533 0,-0.000580487 9.35198e-005,-0.0011571 0.000276686,-0.00170936l0.00121078 -0.00362624 -0.00123015 -0.00122848c-0.000163798,-0.000164905 -0.000257318,-0.000389574 -0.000257318,-0.000619776 0,-0.000402301 0.000272812,-0.000752032 0.000662386,-0.000848319l0.00139782 -0.000350284c0.00170936,-0.000426096 0.00318963,-0.00154833 0.00406396,-0.00307841l0.000449338 -0.000786894 0.00156383 0.000520723c0.00212384,0.000707762 0.00355209,0.00268828 0.00355209,0.00492888l0 0.0018134 0.00244092 0c0.000802389,0 0.00145592,0.000652979 0.00145592,0.00145592 0,0.000382933 -0.000154944,0.000758672 -0.000426096,0.00102982l-0.00347075 0.00347019 0 0.00588511c0,0.00181949 0.000748158,0.00349897 0.00201981,0.00470145 -0.000422223,0.000419456 -0.000806816,0.000884841 -0.00113109,0.00140556l-0.00311493 0.00498366c-0.000682861,0.00109236 -0.00185988,0.00174533 -0.0031509,0.00174533 -0.00204803,0 -0.00371423,-0.0016662 -0.00371423,-0.00371478l0 -0.00224171zm-0.0337695 -0.03041c0,-0.000716616 0.000581594,-0.00129876 0.00129876,-0.00129876l0.00519505 0c0.00071717,0 0.00129876,0.000582147 0.00129876,0.00129876l0 0.00259753c0,0.00071717 -0.000581594,0.00129876 -0.00129876,0.00129876l-0.00519505 0c-0.00071717,0 -0.00129876,-0.000581594 -0.00129876,-0.00129876l0 -0.00259753zm-0.0103907 0.0116894l0 -0.0181832 0.00259753 0 2.76686e-006 0.0181832 -0.00260029 0zm0.00519505 -0.0103907l0.00259753 0 0 0.00259753 -0.00259753 0 0 -0.00259753zm0.0296729 0.043723c-0.000868793,0.000289413 -0.00177411,0.00043661 -0.00269105,0.00043661 -0.00266227,0 -0.00520667,-0.00127165 -0.00680426,-0.00340158l-0.000955119 -0.00127441 -0.00207791 0.00155885 0.000954566 0.00127386c5.97641e-005,7.91321e-005 0.000128936,0.000148304 0.000190913,0.000224669l-0.00335067 -0.000279453c-0.00400696,-0.00033479 -0.00714624,-0.00374688 -0.00714624,-0.00776657l0 -0.025941 -0.00107575 -0.0010752c-0.000690608,-0.000691161 -0.00114935,-0.00154723 -0.00136738,-0.00247468 0.000363565,0.000113441 0.000743178,0.000190913 0.00114437,0.000190913l0.00519505 0c0.00214819,0 0.00389629,-0.0017481 0.00389629,-0.00389629l0 -0.00389629c0,-0.00143268 0.0011654,-0.00259753 0.00259808,-0.00259753l0 0.00842398c0,0.00102982 -0.000301588,0.00202589 -0.000872667,0.00288196l-0.00172541 0.00258757 0 0.018269c0,0.00209839 0.000496374,0.0042012 0.00143545,0.00608321l0.00232361 -0.00116263c-0.000240163,-0.000480327 -0.000431076,-0.000984448 -0.000598748,-0.00149576l0.000428863 -0.000214708c0.00394167,-0.00197166 0.00876153,-0.0020674 0.01281,-0.000335897 -0.00019202,0.000298267 -0.000367439,0.000611476 -0.000504122,0.000950692 -0.00106635,0.00267112 -0.00160754,0.00548447 -0.00160754,0.00836034 0,0.00146201 0.000153284,0.00292346 0.000437717,0.00435835l-0.000638037 0.000211941zm0.00279785 -0.0045703c0,-0.0025444 0.00047922,-0.00503181 0.00142493,-0.00739304 0.000418349,-0.00104532 0.00137291,-0.00172375 0.00247136,-0.00183885l0 0.00143379c0,0.00348071 0.00283271,0.00631231 0.00631231,0.00631231 0.00219246,0 0.004194,-0.00110951 0.00535276,-0.00296663l0.00311327 -0.004982c0.000955673,-0.00152897 0.00260251,-0.00244203 0.00440705,-0.00244203 0.00165679,0 0.00328426,0.000452105 0.00470809,0.00130374 4.26096e-005,2.65618e-005 8.57726e-005,5.20169e-005 0.000128382,7.80254e-005 -0.0036185,0.000418349 -0.00688892,0.00239887 -0.00893861,0.0054734 -0.00137015,0.00205467 -0.00209451,0.00444689 -0.00209451,0.00691715 0,0.00397598 0.00211665,0.00771234 0.00552486,0.00975816l5.47838e-005 3.26489e-005 -0.00716561 0.00614187 -0.0026833 -0.000893695c-0.000471473,-0.000158264 -0.00096508,-0.000239057 -0.00146699,-0.000239057 -0.0017636,0 -0.00335067,0.000980575 -0.00413922,0.00255768l-0.000185379 0.000371312 -0.00259033 0.00129378c-0.000117868,5.97641e-005 -0.000225776,0.000132256 -0.000338663,0.000199767l0 -0.0046118c0,-0.0026263 -0.000620883,-0.00525648 -0.00179514,-0.00760222 -0.00137291,-0.0027497 -0.00210005,-0.00582866 -0.00210005,-0.0089043zm0.0334552 0.0185623l-0.0170029 0.00600076 -0.00572408 0.00284931c-0.00126999,0.000636377 -0.00269215,0.000972827 -0.00411708,0.000972827 -0.00149632,0 -0.00271484,-0.00121686 -0.00271484,-0.00271484 0,-0.0010348 0.0005744,-0.00196613 0.00150019,-0.00242819l0.00336395 -0.00168114 0.00057274 -0.00114548c0.000346964,-0.000692268 0.001042,-0.00112224 0.00181561,-0.00112224 0.000219689,0 0.000435503,3.37557e-005 0.000641911,0.000104034l0.00408222 0.00136129 0.0110176 -0.00944384 -0.00314426 -0.001887c-0.00263018,-0.00157932 -0.00426373,-0.00446405 -0.00426373,-0.00753194 0,-0.00195562 0.00057274,-0.00385091 0.00165845,-0.00547949 0.00183664,-0.00275358 0.00490951,-0.00439764 0.00821868,-0.00439764l0.00163521 0c0.000957333,0.00102872 0.00176913,0.00219246 0.00240717,0.00346632 0.0010907,0.00218194 0.0016662,0.00462397 0.0016662,0.00706324l0 0.00415084 0.00148082 0.00221957c0.000731004,0.00109623 0.0011167,0.00237286 0.0011167,0.00369265 0,0.00267002 -0.00169221,0.00506114 -0.0042106,0.00595096z"/>
 </g>
</svg>
