<?xml version="1.0" encoding="UTF-8"?>
<!DOCTYPE svg PUBLIC "-//W3C//DTD SVG 1.1//EN" "http://www.w3.org/Graphics/SVG/1.1/DTD/svg11.dtd">
<!-- Creator: CorelDRAW -->
<svg xmlns="http://www.w3.org/2000/svg" xml:space="preserve" width="0.552323in" height="0.572913in" style="shape-rendering:geometricPrecision; text-rendering:geometricPrecision; image-rendering:optimizeQuality; fill-rule:evenodd; clip-rule:evenodd"
viewBox="0 0 0.0441901 0.0458375"
 xmlns:xlink="http://www.w3.org/1999/xlink">
 <defs>
  <style type="text/css">
   <![CDATA[
    .fil0 {fill:#8DBD40}
   ]]>
  </style>
 </defs>
 <g id="Layer_x0020_1">
  <metadata id="CorelCorpID_0Corel-Layer"/>
  <g id="_779174024">
   <path id="_779174072" class="fil0" d="M0.0356608 0.0150153c0.000148991,0.000148991 0.00034397,0.000223014 0.000538635,0.000223014 0.000194979,0 0.000389959,-7.46529e-005 0.00053895,-0.000223014l0.00530791 -0.00530823c0.00152046,-0.00152078 0.00152046,-0.00399566 0,-0.00551675 -0.00152078,-0.00152109 -0.00399598,-0.00152046 -0.00551675,0l-0.000330111 0.000329481 -0.000329481 -0.000329481c-0.00152141,-0.00152078 -0.00399566,-0.00152078 -0.00551675,0 -0.000736764,0.000737079 -0.00114279,0.0017167 -0.00114279,0.00275838 0,0.00104168 0.000406023,0.00202161 0.00114279,0.00275806l0.0053076 0.00530854zm-0.00423001 -0.0097474c0.000463667,-0.000463667 0.00107223,-0.00069487 0.00168079,-0.00069487 0.000608563,0 0.00121776,0.000231518 0.00168111,0.00069487l0.000868115 0.000868745c0.000143321,0.000142691 0.00033704,0.000223014 0.000538635,0.000223014 0.000202224,0 0.000395944,-8.03227e-005 0.00053895,-0.000223014l0.000868745 -0.000868745c0.000927333,-0.000927648 0.00243488,-0.000926703 0.0033619,0 0.000926703,0.000926703 0.000926703,0.0024352 0,0.0033619l-0.00476959 0.00476896 -0.00476865 -0.00476896c-0.000448862,-0.000449177 -0.00069676,-0.0010464 -0.00069676,-0.00168079 6.29982e-007,-0.000635022 0.000247898,-0.00123224 0.00069676,-0.00168111z"/>
   <path id="_779174120" class="fil0" d="M0.043344 0.0441951c-0.00651275,0.000722274 -0.0116777,-0.00216147 -0.0117293,-0.00219045 -0.000175135,-9.98521e-005 -0.000383029,-0.000126941 -0.000577693,-7.33929e-005 -8.22126e-005,2.20494e-005 -0.00827418,0.00221785 -0.014872,0.000753143 -0.00411347,-0.000914419 -0.00799321,-0.00381171 -0.0108262,-0.00592719 -0.000380509,-0.000283807 -0.000740859,-0.000553439 -0.00107947,-0.000800707 -0.000462407,-0.0003383 -0.00119728,-0.000619272 -0.00184553,-0.0008678 -0.000290737,-0.000111192 -0.000689515,-0.000263962 -0.000775193,-0.000317511 -7.40229e-005,-5.79583e-005 -0.000114657,-0.000143321 -0.000114657,-0.000240968l0 -0.00176584c3.6539e-005,-0.00139762 0.00589569,-0.0229002 0.00680444,-0.0256355 2.23644e-005,-3.21291e-005 0.000109617,-9.54423e-005 0.000173875,-0.000125996l0.0115951 -0.00529594 0.00374839 0.00488016c0.000185215,0.000252938 0.000167575,0.000606358 -4.09488e-005,0.000839766l-0.00370366 0.00415221c-0.000242543,0.000272152 -0.000650771,0.000302076 -0.000903709,9.04024e-005l-0.00149778 -0.00138092c-0.000175765,-0.00016159 -0.000425238,-0.000215139 -0.000659276,-0.000171985 -0.000234668,4.18938e-005 -0.000444452,0.000208839 -0.000553124,0.000421458 -0.000125051,0.000246638 -0.00125902,0.000548714 -0.00241598,0.000557534l-0.000377044 -3.81139e-005c-0.000302076,-3.5909e-005 -0.000595018,0.000121587 -0.000742749,0.000387754 -0.000148361,0.000266167 -0.000123161,0.000595018 6.29982e-005,0.000836301 0.000321606,0.000415788 0.000572339,0.000749679 0.0007144,0.000941508l0.000741489 0.0126022c-0.000459572,0.00178978 -0.000880715,0.00229849 -0.000985292,0.00240023 -0.000308691,9.73322e-005 -0.000532965,0.000385864 -0.000532965,0.000726684 0,0.000420513 0.00034145,0.000761963 0.000761963,0.000761963 0.000864335,0 0.00159858,-0.00113554 0.00218824,-0.00335245 0.00606011,-0.00453398 0.0113485,-0.000254828 0.0117633,9.73322e-005 0.00192491,0.00193184 0.00204398,0.0032148 0.00204807,0.00327181 9.13474e-006,0.000412638 0.00034649,0.000744954 0.000761963,0.000744954 0.000420828,0 0.000761963,-0.00034082 0.000761963,-0.000761648 0,-0.000175135 -6.36282e-005,-0.00167859 -0.00203579,-0.00385076 0.00186002,-0.00228652 0.00397739,-0.0036035 0.00630958,-0.00388982 0.00402117,-0.000495166 0.00740103,0.0022084 0.00743505,0.00223549 0.000326646,0.000265852 0.000805747,0.000216714 0.0010716,-0.000109302 0.000265537,-0.000325386 0.000217659,-0.000804487 -0.000107412,-0.00107065 -0.000157495,-0.000128516 -0.00389896,-0.00313794 -0.00856964,-0.0025697 -0.00273034,0.000331056 -0.00518097,0.0018071 -0.00729362,0.0043916 -0.00171481,-0.00116578 -0.00663088,-0.00380446 -0.012129,-0.00035342l-0.000681955 -0.0115898c-6.9298e-006,-0.000125051 -4.53587e-005,-0.000246323 -0.000110877,-0.000353105 0.000681955,-8.06377e-005 0.001494,-0.000258923 0.00208304,-0.000646362l0.000981512 0.000904654c0.000913789,0.000767003 0.00225219,0.000671561 0.00304754,-0.000218604l0.00370398 -0.00415316c0.000683215,-0.000765428 0.000740229,-0.00192302 0.000123791,-0.0027672l-0.00412922 -0.00537627c-0.000215454,-0.000280657 -0.000596593,-0.000376099 -0.000920719,-0.000228683l-0.0121369 0.00554384c-0.000126941,5.54384e-005 -0.000770783,0.000367279 -0.000982457,0.00100356 -0.000431538,0.00129556 -0.0068961,0.0243494 -0.0068961,0.0261455l0 0.00176867c0,0.000567614 0.000255143,0.0010927 0.000698965,0.00144045 0.000222069,0.000173875 0.000553754,0.000305541 0.00117051,0.000541155 0.000503356,0.000193089 0.00119287,0.000456422 0.00149054,0.000674081 0.000334835,0.000245063 0.000690775,0.00051123 0.00106719,0.000792202 0.00294359,0.00219832 0.00697485,0.00520869 0.0114077,0.00619398 0.00631021,0.00140234 0.0137182,-0.000293257 0.015306,-0.000693295 0.00106026,0.000548084 0.0049504,0.00235834 0.0100435,0.00235834 0.000751254,0 0.0015296,-3.90589e-005 0.00232778,-0.000128201 0.000418308,-4.63037e-005 0.000719439,-0.000423033 0.000673136,-0.000841026 -4.66187e-005,-0.000418938 -0.000424608,-0.000722589 -0.000841341,-0.000673136z"/>
   <path id="_779174216" class="fil0" d="M0.0396142 0.0349634c-4.22088e-005,-0.000381454 -0.000365075,-0.000677861 -0.000757553,-0.000677861 -0.000420828,0 -0.000762278,0.00034145 -0.000762278,0.000761963 0,0.000509025 0.000376099,0.00223203 0.00520838,0.00303683 4.25238e-005,7.24479e-006 8.47326e-005,1.07097e-005 0.000125996,1.07097e-005 0.000365705,0 0.00068857,-0.000263962 0.000750939,-0.000636597 6.8668e-005,-0.000415158 -0.000211674,-0.000807322 -0.000626517,-0.000876935 -0.00337922,-0.000563204 -0.00389392,-0.00151668 -0.00393896,-0.00161811z"/>
   <path id="_779174240" class="fil0" d="M0.0249832 0.0388737c-0.00997891,0.00213753 -0.0142492,-0.00469022 -0.014426,-0.00498158 -0.000217659,-0.00035972 -0.000684475,-0.000475636 -0.00104451,-0.000259553 -0.00036098,0.000216399 -0.000477841,0.000684475 -0.000261128,0.00104546 5.03986e-005,8.34726e-005 0.0012628,0.00207359 0.00385517,0.00376918 0.00178631,0.00116767 0.00451036,0.00235739 0.00819449,0.00235739 0.00122689,0 0.00256025,-0.000131981 0.0040007,-0.000440357 0.000411693,-8.81975e-005 0.000674081,-0.000493276 0.000585883,-0.000904654 -8.85125e-005,-0.000411378 -0.000493276,-0.000674711 -0.000904654,-0.000585883z"/>
  </g>
 </g>
</svg>
