<?xml version="1.0" encoding="UTF-8"?>
<!DOCTYPE svg PUBLIC "-//W3C//DTD SVG 1.1//EN" "http://www.w3.org/Graphics/SVG/1.1/DTD/svg11.dtd">
<!-- Creator: CorelDRAW -->
<svg xmlns="http://www.w3.org/2000/svg" xml:space="preserve" width="0.531992in" height="0.572909in" style="shape-rendering:geometricPrecision; text-rendering:geometricPrecision; image-rendering:optimizeQuality; fill-rule:evenodd; clip-rule:evenodd"
viewBox="0 0 0.0645706 0.069537"
 xmlns:xlink="http://www.w3.org/1999/xlink">
 <defs>
  <style type="text/css">
   <![CDATA[
    .fil0 {fill:#8DBD40}
   ]]>
  </style>
 </defs>
 <g id="Layer_x0020_1">
  <metadata id="CorelCorpID_0Corel-Layer"/>
  <path class="fil0" d="M0.0211097 0.0347683c-0.000685244,0 -0.00124147,0.000556223 -0.00124147,0.00124147l0 0.026077 -0.0186263 0c-0.000685722,0 -0.00124195,0.000556223 -0.00124195,0.00124195 0,0.000685244 0.000556223,0.00124147 0.00124195,0.00124147l0.0186263 0 0 0.00248341 -0.00372536 0c-0.000685722,0 -0.00124195,0.000556223 -0.00124195,0.00124195 0,0.000685244 0.000556223,0.00124147 0.00124195,0.00124147l0.0223507 0c0.000685722,0 0.00124195,-0.000556223 0.00124195,-0.00124147 0,-0.000685722 -0.000556223,-0.00124195 -0.00124195,-0.00124195l-0.00372488 0 0 -0.00993365 0.0173844 0 0 0.00993365 -0.00124195 0c-0.000685244,0 -0.00124147,0.000556223 -0.00124147,0.00124195 0,0.000685244 0.000556223,0.00124147 0.00124147,0.00124147l0.00993413 0c0.000685244,0 0.00124195,-0.000556223 0.00124195,-0.00124147 0,-0.000685722 -0.000556701,-0.00124195 -0.00124195,-0.00124195l-0.00124147 0 0 -0.00993365 0.00372488 0c0.000685722,0 0.00124195,-0.000556701 0.00124195,-0.00124195l0 -0.00496682c0,-0.000685722 -0.000556223,-0.00124195 -0.00124195,-0.00124195l-0.00147036 0c0.000139056,-0.00038993 0.000228893,-0.000804708 0.000228893,-0.00124147 0,-0.0020543 -0.00167154,-0.00372536 -0.00372536,-0.00372536l-0.0235931 0 0 -0.00869266c0,-0.000685244 -0.000556223,-0.00124147 -0.00124195,-0.00124147l-0.00124099 0 0 -0.0312269 0.0104521 -0.000740197c-0.000322552,0.000655617 -0.000518951,0.00138578 -0.000518951,0.00216564 0,0.00273906 0.00222776,0.00496682 0.0049673,0.00496682 0.00090888,0 0.00175086,-0.000263298 0.00248341,-0.0006905l0 0.0109548 -0.0111909 0.00667563c-0.000588239,0.000350268 -0.000782249,0.00111245 -0.000431981,0.00170355 0.000233671,0.00038993 0.000645582,0.000606398 0.00106801,0.000606398 0.00021838,0 0.000436759,-5.73426e-005 0.000635547,-0.000176328l0.0111015 -0.00662116 0.00720462 0.0051183c0.00021838,0.000156736 0.000469254,0.000228415 0.000720127,0.000228415 0.00038754,0 0.000772214,-0.000181107 0.00101066,-0.00052134 0.000397575,-0.000558612 0.000265687,-0.00133369 -0.000290536,-0.00173079l-0.00734368 -0.00522057c0,0 0,-0.0151939 0,-0.0152933 0,-0.00273954 -0.00222776,-0.00496682 -0.00496682,-0.00496682 -2.24592e-005,0 -4.25291e-005,7.16782e-006 -6.45104e-005,7.16782e-006 -7.64568e-006,0 -1.52914e-005,-2.38927e-006 -2.24592e-005,-2.38927e-006l-0.0347687 0.00248341c-9.5571e-006,0 -1.95921e-005,7.64568e-006 -2.9627e-005,7.64568e-006 -0.0026822,6.45104e-005 -0.00485023,0.002255 -0.00485023,0.0049544l0 0.0277328 -0.00658866 0.00212837c-0.000514172,0.000166294 -0.00086205,0.000643193 -0.00086205,0.00118221l0 0.0198678c0,0.000685722 0.000556223,0.00124195 0.00124195,0.00124195l0.014901 0c0.000685244,0 0.00124195,-0.000556223 0.00124195,-0.00124195l0 -0.0198678c0,-0.000528985 -0.000337843,-0.00100111 -0.000837202,-0.00117505l-0.00661351 -0.00227459 0 -0.0233169c0.000732552,0.000427202 0.00157453,0.000690023 0.00248341,0.000690023 0.00273954,0 0.0049673,-0.00222728 0.0049673,-0.00496682 0,-0.00102548 -0.000312995,-0.00198166 -0.000849626,-0.00277395l0.00581645 -0.000412389 0 0.0305044 -0.00124195 0zm0.00124195 0.0322853l0 -0.0298019 0.00993413 0 0 0.0298019 -0.00993413 0zm0.0347683 0l-0.00248341 0 0 -0.00993365 0.00248341 0 0 0.00993365zm0.0049673 -0.0124175l-0.0273185 0 0 -0.00248341 0.0273185 0 0 0.00248341zm-0.00372536 -0.00745024c0.000682855,0 0.00124195,0.000556223 0.00124195,0.00124195 0,0.000685244 -0.00055909,0.00124147 -0.00124195,0.00124147l-0.0235931 0 0 -0.00248341 0.0235931 0zm-0.00869218 -0.042219c0,0.00136858 -0.00111292,0.00248341 -0.00248341,0.00248341 -0.00137097,0 -0.00248389,-0.00111484 -0.00248389,-0.00248341 0,-0.00136332 0.00110289,-0.0024686 0.00246382,-0.00247863l2.72377e-005 -2.38927e-006c0.00136858,4.77855e-006 0.00247624,0.00111484 0.00247624,0.00248102zm-0.0347687 0.0447373c-5.68647e-005,-1.0035e-005 -0.000106562,-3.48834e-005 -0.000166294,-3.48834e-005l-0.0116176 0c-0.00023606,0 -0.000444883,8.45803e-005 -0.000633158,0.000198788l0 -0.0053644c0.000188275,0.000114207 0.000397097,0.000198788 0.000633158,0.000198788l0.0116176 0c5.97319e-005,0 0.000109429,-2.48485e-005 0.000166294,-3.48834e-005l0 0.00503659zm-0.0124171 0.00741583l0 -0.00516561c0.000188275,0.000113729 0.000397097,0.00019831 0.000633158,0.00019831l0.0116176 0c5.97319e-005,0 0.000109429,-2.48485e-005 0.000166294,-3.48834e-005l0 0.00500219 -0.0124171 0zm0.0124171 -0.0148665c-5.68647e-005,-1.0035e-005 -0.000106562,-3.44056e-005 -0.000166294,-3.44056e-005l-0.0116176 0c-0.00023606,0 -0.000444883,8.41025e-005 -0.000633158,0.00019831l0 -0.00302004 0.00643193 -0.00207867 0.00598513 0.00206147 0 0.00287334zm-0.00248341 -0.0323197c-0.00137097,0 -0.00248341,-0.00111484 -0.00248341,-0.00248341 0,-0.00136858 0.00111245,-0.00248341 0.00248341,-0.00248341 0.00137097,0 0.00248341,0.00111484 0.00248341,0.00248341 0,0.00136858 -0.00111245,0.00248341 -0.00248341,0.00248341zm0.0124175 -0.00584847l0.00496682 -0.000365081 0 0.0310481 -0.00496682 0 0 -0.0306831z"/>
 </g>
</svg>
