<?xml version="1.0" encoding="UTF-8"?>
<!DOCTYPE svg PUBLIC "-//W3C//DTD SVG 1.1//EN" "http://www.w3.org/Graphics/SVG/1.1/DTD/svg11.dtd">
<!-- Creator: CorelDRAW -->
<svg xmlns="http://www.w3.org/2000/svg" xml:space="preserve" width="0.572917in" height="0.572913in" style="shape-rendering:geometricPrecision; text-rendering:geometricPrecision; image-rendering:optimizeQuality; fill-rule:evenodd; clip-rule:evenodd"
viewBox="0 0 0.0526668 0.0526664"
 xmlns:xlink="http://www.w3.org/1999/xlink">
 <defs>
  <style type="text/css">
   <![CDATA[
    .fil0 {fill:#8DBD40}
   ]]>
  </style>
 </defs>
 <g id="Layer_x0020_1">
  <metadata id="CorelCorpID_0Corel-Layer"/>
  <path class="fil0" d="M0.0451913 0.0186884c-0.00043756,-3.61919e-007 -0.000867881,0.000114366 -0.00124717,0.000332965 -0.000379291,0.000218237 -0.000694522,0.000532382 -0.000914207,0.000910949 -0.000219323,0.000378567 -0.000335499,0.000808164 -0.000336946,0.00124609 -1.08576e-006,0.00043756 0.000112919,0.000867881 0.000330432,0.00124753l0.00284721 0.0049829 0 0.00525035c-0.000487505,-0.000631186 -0.00105897,-0.00119252 -0.00169885,-0.00166917l0 -0.00140497c0,-0.00176363 -0.000700675,-0.00345451 -0.00194785,-0.00470132 -0.00124681,-0.00124717 -0.00293806,-0.00194785 -0.00470169,-0.00194785l-0.00334341 0 -0.00444798 -0.00222399 0 -0.00147373c0.00103002,-0.000770525 0.00185556,-0.00178136 0.00240423,-0.00294457 0.000650006,0.000752791 0.00145455,0.00135647 0.00235899,0.00176942 0.000904797,0.000413311 0.00188777,0.000626843 0.00288232,0.000625396l0.00339769 0c0.000191455,0 0.000377481,-6.44215e-005 0.000527677,-0.000183131 0.000150196,-0.000118709 0.000255877,-0.00028483 0.000300031,-0.000471218 4.37922e-005,-0.000186388 2.35247e-005,-0.000382186 -5.7907e-005,-0.000555545 -8.10698e-005,-0.000173721 -0.000218599,-0.000314507 -0.000390148,-0.00039992 -0.000881996,-0.000437198 -0.00162393,-0.00111254 -0.00214147,-0.00195002 -0.000517544,-0.000837118 -0.000790069,-0.00180308 -0.000786449,-0.0027875l0 -0.00639474c7.23837e-007,-0.00119144 -0.00035649,-0.00235573 -0.00102568,-0.0033416 -0.000669188,-0.000985867 -0.00161922,-0.00174771 -0.00272706,-0.00218671 -0.00110783,-0.000439007 -0.00232207,-0.000534554 -0.00348492,-0.000274696 -0.00116284,0.000259858 -0.00222037,0.000863538 -0.00303577,0.0017325 -0.0011158,-0.000244295 -0.0022714,-0.000235247 -0.00338285,2.6782e-005 -0.00111181,0.000262029 -0.00215016,0.000770163 -0.00303939,0.00148676 -0.000888872,0.000716599 -0.00160583,0.00162393 -0.00209768,0.00265431 -0.000491848,0.00103074 -0.000746276,0.00215848 -0.000744105,0.0033007l0 0.00339769c0,0.0001321 3.07631e-005,0.000262029 8.97558e-005,0.000380015 5.89928e-005,0.000117986 0.000144406,0.000220408 0.000250086,0.000299669 9.26512e-005,6.55073e-005 0.000197246,0.000111471 0.000307993,0.000135358 0.000110747,2.35247e-005 0.000225475,2.46105e-005 0.000336584,2.89535e-006 0.000305097,0.0022439 0.00147627,0.00427933 0.00326306,0.00567018l0 0.0014817 -0.00444798 0.00222399 -0.00334341 0c-0.00176363,0 -0.00345488,0.000700675 -0.00470169,0.00194785 -0.00124717,0.00124681 -0.00194785,0.00293769 -0.00194785,0.00470132l0 0.00140497c-0.000639872,0.000476647 -0.00121134,0.00103798 -0.00169921,0.00166917l0 -0.00525035 0.00284939 -0.00498615c0.000216789,-0.000379653 0.00033007,-0.000809974 0.00032826,-0.00124717 -1.80959e-006,-0.000437198 -0.000118347,-0.000866433 -0.000338032,-0.00124464 -0.000219685,-0.000378205 -0.000534554,-0.000691989 -0.000913845,-0.000909864 -0.000378929,-0.000218237 -0.000808888,-0.000332965 -0.00124609,-0.000332603 -0.000872586,0 -0.00172961,0.000233438 -0.00248168,0.000676064 -0.000752067,0.000442627 -0.0013724,0.00107816 -0.0017962,0.00184108 -0.00209515,0.00377662 -0.00319538,0.0080241 -0.00319719,0.0123429l0 0.00616963c-3.61919e-007,0.000881272 0.000260581,0.00174228 0.000749896,0.0024748 0.000489314,0.000732523 0.00118492,0.00130363 0.00199888,0.00164058 0.000813955,0.000337308 0.00170934,0.000425254 0.0025736,0.000253343 0.0008639,-0.000171911 0.00165759,-0.000596442 0.00228009,-0.00121967l0.00816597 -0.00816597 0.00158412 0.00475706c0.000555545,0.00166736 0.000635891,0.00345632 0.00023199,0.00516675 -0.000403901,0.00171043 -0.00127613,0.00327464 -0.00251859,0.00451711l-0.00207524 0.00207524c-0.000118347,0.000119071 -0.000199055,0.000270353 -0.000231628,0.000434664 -3.25727e-005,0.000164673 -1.59244e-005,0.000335137 4.84971e-005,0.0004904 6.40596e-005,0.000154901 0.000172997,0.000287363 0.000312336,0.000380738 0.000139701,9.3375e-005 0.00030365,0.00014332 0.000471218,0.00014332l0.0254838 0c0.00016793,0 0.000332241,-4.95829e-005 0.00047158,-0.000142958 0.000139701,-9.3375e-005 0.000248638,-0.000226199 0.00031306,-0.0003811 6.40596e-005,-0.000155263 8.10698e-005,-0.000326089 4.81352e-005,-0.000490762 -3.25727e-005,-0.000165035 -0.000113642,-0.000316317 -0.000232352,-0.000435026l-0.00207524 -0.00207524c-0.00124247,-0.00124283 -0.00211469,-0.00280668 -0.00251859,-0.00451711 -0.000403901,-0.00171043 -0.000323555,-0.00349939 0.00023199,-0.00516675l0.00158412 -0.00475706 0.00816597 0.00816597c0.0006225,0.000623224 0.00141619,0.00104739 0.00228009,0.00121967 0.0008639,0.000171911 0.00175929,8.39651e-005 0.00257324,-0.000252981 0.000813955,-0.000336946 0.00150956,-0.000908054 0.00199888,-0.00164022 0.000489314,-0.000732523 0.000750619,-0.00159389 0.000750257,-0.0024748l0 -0.00616963c-2.17151e-006,-0.00431878 -0.00110277,-0.00856553 -0.00319791,-0.0123422 -0.000424169,-0.000762925 -0.00104414,-0.00139845 -0.00179584,-0.00184108 -0.000752067,-0.000442627 -0.00160873,-0.000676426 -0.00248131,-0.000676788zm-0.00069235 0.00289245c-6.94884e-005,-0.000121243 -0.00010568,-0.000258772 -0.000104956,-0.000398473 3.61919e-007,-0.000139701 3.72776e-005,-0.000276868 0.00010749,-0.000397749 7.02122e-005,-0.000120881 0.000170826,-0.000221132 0.000291706,-0.000290983 0.000121243,-6.94884e-005 0.00025841,-0.000106404 0.000398111,-0.000106404 0.00056966,0 0.00112919,0.000152368 0.00162031,0.000441541 0.000491124,0.000288811 0.000896111,0.000703932 0.00117262,0.00120229 0.00075822,0.0013695 0.00137855,0.00281066 0.00185194,0.00430249l-0.00262319 0 -0.00271403 -0.00475272zm-0.0122195 -0.0198816c0.00112593,1.08576e-006 0.00220553,0.000449141 0.00300175,0.00124536 0.000796221,0.000796221 0.00124428,0.00187582 0.00124536,0.00300175l0 0.00639474c-4.70494e-006,0.00171332 0.000621776,0.00336802 0.00176001,0.00464848l-0.000910226 0c-0.000922169,1.08576e-006 -0.00182805,-0.000242124 -0.00262572,-0.000704656 -0.000797669,-0.000462532 -0.00145853,-0.0011281 -0.00191564,-0.00192866 6.29739e-005,-0.000260943 0.000117262,-0.000525868 0.00016033,-0.000796945 4.37922e-005,1.44767e-005 8.83082e-005,2.53343e-005 0.000133548,3.22108e-005 0.000225475,0 0.000441179,-8.93939e-005 0.000600785,-0.000248638 0.000159244,-0.000159244 0.000248638,-0.00037531 0.000248638,-0.000600785l0 -0.00339769c-1.80959e-006,-0.00141474 -0.000396301,-0.00280125 -0.00113896,-0.00400535 -0.000743019,-0.0012041 -0.00180561,-0.00217803 -0.00306943,-0.00281428 0.000726733,-0.000536725 0.0016062,-0.00082626 0.00250954,-0.000825537zm-0.0118923 0.00764517c0,-0.00157724 0.000626481,-0.0030897 0.00174155,-0.00420477 0.00111507,-0.00111507 0.00262789,-0.00174155 0.00420477,-0.00174155 0.00157652,0 0.00308934,0.000626481 0.00420441,0.00174155 0.00111507,0.00111507 0.00174155,0.00262753 0.00174155,0.00420477l0 0.00105174 -0.00274552 -0.00329455c-9.69942e-005,-0.000116176 -0.000222942,-0.000204484 -0.000365538,-0.000255515 -0.000142234,-5.10305e-005 -0.00029605,-6.33358e-005 -0.000444436,-3.5468e-005 -0.000148749,2.82297e-005 -0.000287363,9.55465e-005 -0.000401368,0.000195074 -0.000114004,9.95276e-005 -0.000199417,0.000227647 -0.00024719,0.000371329 -0.000219685,0.000657606 -0.000594271,0.00125296 -0.00109191,0.00173576 -0.000498,0.000483161 -0.00110385,0.000839289 -0.00176797,0.00103943l-0.00482836 0.0014484 0 -0.0022562zm0.000934474 0.00375129l0.00438682 -0.00131594c0.00139845,-0.000420911 0.00259713,-0.00133512 0.00337272,-0.00257288l0.00234777 0.00281754c-5.75451e-005,0.00368578 -0.00231881,0.00666401 -0.00509545,0.00666401 -0.0024719,0 -0.00458696,-0.00240821 -0.00501185,-0.00559273zm0.00284323 0.00890573c0.000141872,-7.09361e-005 0.000260943,-0.000180236 0.000343823,-0.000315231 8.32413e-005,-0.000134996 0.000126672,-0.000290983 0.000125948,-0.000449503l0 -0.00112955c0.00110168,0.000373138 0.00229565,0.000373138 0.00339733,0l0 0.00112955c0,0.000158158 4.37922e-005,0.000312698 0.000127033,0.00044697 8.28794e-005,0.000134272 0.000201589,0.000242847 0.000342737,0.000313422l0.00162067 0.000810336 0.0011538 0.0069235 -0.00988581 0 0.0011538 -0.0069235 0.00162067 -0.000805993zm-0.0194806 3.40204e-005c0.000275782,-0.000498724 0.000680045,-0.000914569 0.00117081,-0.00120447 0.000491124,-0.000289897 0.00105029,-0.000442989 0.00162031,-0.000443712 0.000139701,0 0.000276868,3.69157e-005 0.000398111,0.000106404 0.000120881,6.98503e-005 0.000221494,0.000170102 0.000291706,0.000290983 7.02122e-005,0.000120881 0.000107128,0.000258048 0.000107852,0.000397749 3.61919e-007,0.000139701 -3.583e-005,0.00027723 -0.000105318,0.000398473l-0.00271403 0.00475272 -0.00262319 0c0.000474114,-0.00149183 0.0010948,-0.00293335 0.00185375,-0.00430249l0 4.34302e-006zm0.0017173 0.0196305c-0.000385082,0.000385443 -0.000875843,0.000647473 -0.0014104,0.000753877 -0.000534192,0.000106404 -0.00108829,5.17544e-005 -0.00159136,-0.000156711 -0.000503429,-0.000208465 -0.00093375,-0.000561336 -0.00123631,-0.00101446 -0.000302926,-0.000453122 -0.000464342,-0.000985505 -0.000464342,-0.00153055l0 -0.00616963c3.98111e-006,-0.00185845 0.000226199,-0.00370967 0.000662673,-0.00551637l0.00273502 0 0 0.00849459c0,0.000207741 7.5641e-005,0.000407882 0.00021317,0.000563146 0.000137529,0.000155625 0.000326813,0.000255153 0.000532744,0.000280487 0.00020557,2.31628e-005 0.000412225,-2.82297e-005 0.000582689,-0.000145491 0.000170464,-0.0001169 0.000292792,-0.000291706 0.000344909,-0.000491486l0.000107128 -0.000424893c0.000424893,-0.00170789 0.00147301,-0.00319502 0.00293806,-0.00417003 0.000116538,-7.78125e-005 0.000212084,-0.000183131 0.000278315,-0.000306545 6.58692e-005,-0.000123776 0.000100251,-0.000261667 9.98896e-005,-0.00040173l0 -0.00184506c0,-0.000650368 0.000128119,-0.00129386 0.000376757,-0.00189464 0.000249,-0.000600785 0.000613452,-0.00114656 0.00107309,-0.00160583 0.000459999,-0.000459637 0.00100541,-0.000824089 0.0016062,-0.00107309 0.000600785,-0.000248638 0.00124428,-0.000376757 0.00189464,-0.000376757l0.00243209 0 -0.00219685 0.00805342 -0.00897812 0.00897776zm0.0299976 0.00867664l0.000625396 0.000625034 -0.0213825 0 0.000625396 -0.000625034c0.00120845,-0.00119469 0.00212374,-0.00265286 0.00267494,-0.00426015 0.000551202,-0.00160728 0.000723114,-0.00332024 0.000501981,-0.00500497 0.0044697,-0.00150269 0.00930819,-0.00150269 0.0137779,0 -0.000221132,0.00168473 -4.92209e-005,0.00339769 0.000501981,0.00500497 0.000551202,0.00160728 0.00146649,0.00306545 0.00267494,0.00426015zm-0.00269774 -0.0114254c-5.3564e-005,0.000160692 -9.44608e-005,0.000323555 -0.000140063,0.000486057 -0.00469734,-0.00153092 -0.00975878,-0.00153092 -0.0144561,0 -4.56018e-005,-0.000162502 -8.4689e-005,-0.000325365 -0.000140063,-0.000486057l-0.00193735 -0.00581278 0.00237817 -0.00872876 0.00125731 -0.000628653 -0.00111543 0.00669332c-2.02674e-005,0.000121967 -1.37529e-005,0.000246829 1.88198e-005,0.0003659 3.29346e-005,0.000119071 9.12035e-005,0.000229456 0.000171188,0.000323917 7.9984e-005,9.40989e-005 0.000179512,0.00016974 0.000291706,0.000221494 0.000112195,5.17544e-005 0.000234161,7.85364e-005 0.000357576,7.85364e-005l0.0118923 0c0.000123414,-3.61919e-007 0.000245019,-2.71439e-005 0.000357214,-7.88983e-005 0.000111833,-5.21163e-005 0.000210999,-0.000127757 0.000290983,-0.000221856 7.96221e-005,-9.40989e-005 0.000137891,-0.000204484 0.000170464,-0.000323555 3.29346e-005,-0.000119071 3.90872e-005,-0.000243571 1.88198e-005,-0.000365538l-0.00111543 -0.00669332 0.00125731 0.000628653 0.00237853 0.00872876 -0.0019359 0.00581278zm0.0172661 0.000800926c0,0.00054505 -0.000161416,0.00107743 -0.000464342,0.00153055 -0.000302564,0.000453122 -0.000732885,0.000805993 -0.00123631,0.00101446 -0.000503067,0.000208465 -0.00105716,0.000263115 -0.00159136,0.000156711 -0.000534554,-0.000106404 -0.00102532,-0.000368433 -0.0014104,-0.000753877l-0.00897377 -0.00897776 -0.00220119 -0.00805342 0.00243209 0c0.000650368,0 0.00129386,0.000128119 0.00189464,0.000376757 0.000600785,0.000249 0.0011462,0.000613452 0.0016062,0.00107309 0.000459637,0.000459275 0.000824089,0.00100505 0.00107309,0.00160583 0.000248638,0.000600785 0.000376757,0.00124428 0.000376757,0.00189464l0 0.00184506c0,0.000139701 3.43823e-005,0.00027723 0.000100613,0.000400644 6.58692e-005,0.000123414 0.000161054,0.000228371 0.000277592,0.000305821 0.00146396,0.000975733 0.00251063,0.00246286 0.0029348,0.00417003l0.000107128 0.000424893c4.74114e-005,0.000204122 0.000168654,0.000383634 0.000340204,0.000503791 0.000171911,0.000120157 0.000381824,0.000172635 0.000589928,0.000147301 0.000208103,-2.53343e-005 0.000399558,-0.000126672 0.000537449,-0.00028483 0.000137891,-0.000157797 0.000212084,-0.000361195 0.000209189,-0.000571108l0 -0.00849459 0.00273538 0c0.000436112,0.0018067 0.000658692,0.00365791 0.000662311,0.00551637l0 0.00616963z"/>
 </g>
</svg>
