<?xml version="1.0" encoding="UTF-8"?>
<!DOCTYPE svg PUBLIC "-//W3C//DTD SVG 1.1//EN" "http://www.w3.org/Graphics/SVG/1.1/DTD/svg11.dtd">
<!-- Creator: CorelDRAW -->
<svg xmlns="http://www.w3.org/2000/svg" xml:space="preserve" width="0.648173in" height="0.572917in" style="shape-rendering:geometricPrecision; text-rendering:geometricPrecision; image-rendering:optimizeQuality; fill-rule:evenodd; clip-rule:evenodd"
viewBox="0 0 0.841569 0.743859"
 xmlns:xlink="http://www.w3.org/1999/xlink">
 <defs>
  <style type="text/css">
   <![CDATA[
    .fil0 {fill:#8DBD40}
   ]]>
  </style>
 </defs>
 <g id="Layer_x0020_1">
  <metadata id="CorelCorpID_0Corel-Layer"/>
  <g id="_779174504">
   <path id="_779174552" class="fil0" d="M0.534755 0.416767l-0.0792313 -0.0365844c-0.0481522,-0.0222512 -0.109038,0.00129837 -0.153019,0.053499l-0.069151 -0.0377857c-0.0153453,-0.00713593 -0.0369473,0.00592957 -0.0472065,0.028053 -0.00497879,0.0102541 -0.00678322,0.0217605 -0.00517304,0.033042 0.000424271,0.00429382 0.00187599,0.00842919 0.00424271,0.0120432 0.0023616,0.00361397 0.00556152,0.00660431 0.00932884,0.00872055l0.0640291 0.0350713c-0.026499,0.0799316 -0.00661453,0.159884 0.049839,0.185892l0.0792108 0.036564c0.0124163,0.00570465 0.0259316,0.00863365 0.0395952,0.00857231 0.0227777,-0.000526505 0.0449983,-0.00719216 0.0643051,-0.0192915 0.0366866,-0.0230691 0.0656137,-0.0566018 0.0830548,-0.0962737 0.0405613,-0.0877014 0.0226908,-0.182697 -0.0398252,-0.211522zm-0.327164 0.0382406c-0.000327149,-0.000766754 -0.000557175,-0.0015744 -0.000679856,-0.0024025 -0.00066452,-0.00602158 0.000414047,-0.0121096 0.0031028,-0.0175382 0.00246384,-0.00637428 0.00719216,-0.0116189 0.0132751,-0.0147268l0.0632368 0.034596c-0.00678322,0.0102541 -0.0127895,0.0210091 -0.0179574,0.0321628 -0.000138016,0.00033226 -0.000260696,0.000669632 -0.000419159,0.00100189l-0.0605583 -0.0330931zm0.0848644 0.0431938c0.0344733,-0.0746563 0.102658,-0.116843 0.152052,-0.0940808l0.0194142 0.00898125c-0.0115882,0.00338394 -0.022701,0.00821449 -0.0330727,0.0143894 -0.0366815,0.023064 -0.0656086,0.0565916 -0.0830497,0.0962583 -0.0188775,0.0390125 -0.0256454,0.0827788 -0.0194296,0.125671 0.00204468,0.0118949 0.00558197,0.0234831 0.0105199,0.0344937l-0.0192915 -0.00894547c-0.0495017,-0.0228646 -0.0616215,-0.102167 -0.0271431,-0.176768zm0.258258 0.119251c-0.0152226,0.034826 -0.0405051,0.0643102 -0.0726014,0.084665 -0.0114502,0.00798958 -0.0246895,0.0130246 -0.0385524,0.0146655 -0.0138629,0.00164085 -0.0279099,-0.000168686 -0.0409038,-0.00526505 -0.0123039,-0.0065992 -0.0227931,-0.0161376 -0.030527,-0.0277616 -0.00773911,-0.011624 -0.0124828,-0.0249757 -0.013822,-0.0388796 -0.0053315,-0.0376374 0.000715637,-0.0760058 0.0173593,-0.110183 0.0152124,-0.0348362 0.0404949,-0.0643205 0.0725963,-0.084665 0.0152584,-0.00963043 0.0328222,-0.0149875 0.0508614,-0.0155191 0.00984001,-6.13403e-005 0.0195727,0.00201912 0.0285284,0.00609825 0.0494199,0.0228186 0.0615346,0.102116 0.0270613,0.176844z"/>
   <path id="_777114824" class="fil0" d="M0.21831 0.573696c-0.0102183,0.00525993 -0.021464,0.00822983 -0.0329449,0.00868988 -0.011486,0.000465164 -0.0229311,-0.00158463 -0.0335378,-0.00600624 -0.0285488,-0.0131882 -0.0459286,-0.04691 -0.0464755,-0.0902265 -4.60053e-005,-0.00346062 -0.00145172,-0.00675766 -0.00391045,-0.00918572 -0.00246384,-0.00243317 -0.00578133,-0.00379288 -0.00924195,-0.00379288l-0.000173798 0c-0.00172775,2.55585e-005 -0.00343506,0.000388489 -0.00501969,0.00106834 -0.00158463,0.000684967 -0.00302612,0.00167152 -0.00422737,0.00290855 -0.00120636,0.00123703 -0.00215714,0.00269898 -0.0027961,0.00430405 -0.000638962,0.00160507 -0.000955887,0.0033226 -0.00093544,0.00504524 4.60053e-005,0.0214691 0.00453919,0.042698 0.0131882,0.0623474l-0.0196391 -0.00905281c-0.012309,-0.0065992 -0.0227931,-0.0161325 -0.0305322,-0.0277565 -0.00773911,-0.0116291 -0.012493,-0.0249809 -0.0138374,-0.0388796 -0.00531616,-0.0376425 0.000736084,-0.0760058 0.0173798,-0.110183 0.0152175,-0.034826 0.0405,-0.0643154 0.0726014,-0.084665 0.0114502,-0.00797425 0.0246895,-0.0130042 0.0385422,-0.014645 0.0138578,-0.00164085 0.0279047,0.000153351 0.0408987,0.00522926 0.000265808,0.000132904 0.000531616,0.000245361 0.000807648,0.000352707l0.0190615 0.00876656c-0.0260492,0.00927773 -0.0498799,0.0239023 -0.0699536,0.042928 -0.0200736,0.0190257 -0.0359506,0.0420335 -0.0466136,0.0675511 -0.00766243,0.0164954 -0.0134386,0.0337985 -0.0172213,0.0515872 -0.000720749,0.00341461 -5.62287e-005,0.00697235 0.00184021,0.00989624 0.00190155,0.00292389 0.00488678,0.00497368 0.00829628,0.00569443 0.00090477,0.000189133 0.00182999,0.000286255 0.0027552,0.000281143 0.00301079,0 0.00592957,-0.00104279 0.00826561,-0.00293922 0.00233604,-0.00190155 0.00395134,-0.0045443 0.00456986,-0.00749375 0.00338394,-0.0158616 0.00853653,-0.0312836 0.0153658,-0.045995 0.0344733,-0.0746359 0.102674,-0.116935 0.152058,-0.0940654 0.0128457,0.00695702 0.023708,0.017068 0.0315749,0.0293769 0.0078669,0.012309 0.0124725,0.0264172 0.0133926,0.0409958 0.000245361,0.00171242 0.000822983,0.00335327 0.00170731,0.00484078 0.000884323,0.0014875 0.00204979,0.00278587 0.00342995,0.00381844 0.00138527,0.00103256 0.00295967,0.00178909 0.0046312,0.00221336 0.00167664,0.000429382 0.00341972,0.000521393 0.00512703,0.00027092 0.00170731,-0.000245361 0.00335327,-0.000822983 0.00484078,-0.00170731 0.00148239,-0.000879212 0.00278076,-0.00204979 0.00381844,-0.00342995 0.00103256,-0.00138527 0.00178398,-0.00295967 0.00221336,-0.0046312 0.000424271,-0.00167664 0.000516281,-0.00341461 0.00027092,-0.00512703 -0.00157951,-0.0189133 -0.00790268,-0.0371211 -0.0183868,-0.0529418 -0.010479,-0.0158207 -0.0247866,-0.028738 -0.0415888,-0.0375659l-0.0791955 -0.0365997c-0.000286255,-0.000138016 -0.000577622,-0.000260696 -0.0008741,-0.000368042 -0.0167715,-0.00672188 -0.0349384,-0.00923172 -0.0529009,-0.00730461 -0.0179676,0.001922 -0.0351838,0.00822983 -0.0501457,0.0183561 -0.0366815,0.0230691 -0.0656086,0.0565916 -0.0830548,0.0962583 -0.0405613,0.0879416 -0.0227113,0.182902 0.0398252,0.211788l0.0792313 0.036564c0.0123754,0.00564842 0.0258345,0.00853653 0.0394418,0.00844963 0.0168635,-0.000194244 0.0334969,-0.00394112 0.0488218,-0.0109953 0.00318459,-0.00142616 0.00567398,-0.00405869 0.00691612,-0.00731995 0.00124725,-0.00326126 0.00114502,-0.00688034 -0.000281143,-0.01007 -0.00142616,-0.00318459 -0.00405869,-0.00567398 -0.00731995,-0.00691612 -0.00326126,-0.00124725 -0.00688034,-0.00114502 -0.0100649,0.000281143z"/>
   <path id="_779174720" class="fil0" d="M0.618122 0.487012c-0.00348618,4.08936e-005 -0.00681389,0.00146706 -0.00925217,0.00396156 -0.00243828,0.00249962 -0.00378265,0.00586311 -0.00374176,0.00934929 4.08936e-005,0.00348618 0.00146706,0.00681389 0.00396668,0.00925217 0.00249451,0.00243828 0.005858,0.00378265 0.00934418,0.00374176l0.000403824 0c0.0171446,-0.000429382 0.0338548,-0.00545929 0.0483873,-0.0145632 0.0145326,-0.00910393 0.0263508,-0.0219445 0.0342126,-0.0371825 0.0078669,-0.015238 0.0114911,-0.032311 0.0104943,-0.049425 -0.000996781,-0.0171191 -0.00657875,-0.0336554 -0.0161581,-0.0478761 -0.00958443,-0.0142207 -0.0228084,-0.0256096 -0.0383019,-0.0329653 -0.0154884,-0.00735573 -0.032674,-0.0104074 -0.049747,-0.00884323 -0.0170782,0.00156418 -0.0334203,0.00768799 -0.047319,0.0177376 -0.0138936,0.0100445 -0.0248326,0.0236467 -0.0316721,0.0393703 -0.00139549,0.00319992 -0.00146194,0.006819 -0.000189133,0.0100649 0.00127792,0.00325104 0.00378777,0.005858 0.00698769,0.0072535 0.00319481,0.00139549 0.00681389,0.00146194 0.0100649,0.000189133 0.00324593,-0.00127792 0.005858,-0.00378777 0.00724838,-0.00698258 0.00495834,-0.0114042 0.0128866,-0.0212647 0.0229617,-0.0285488 0.01007,-0.00728417 0.021919,-0.0117262 0.0342995,-0.012861 0.0123754,-0.0011348 0.0248377,0.00107857 0.0360681,0.00640495 0.0112304,0.0053315 0.0208199,0.0135869 0.0277667,0.0238921 0.00694679,0.0103103 0.0109953,0.0222972 0.0117211,0.0347084 0.000725861,0.0124061 -0.00190155,0.0247815 -0.00760109,0.0358279 -0.00569954,0.0110515 -0.0142616,0.0203599 -0.0247968,0.0269642 -0.0105352,0.00660431 -0.0226499,0.0102489 -0.0350765,0.0105659l-7.15637e-005 -3.57819e-005z"/>
   <path id="_779174792" class="fil0" d="M0.819272 0.0652048c-0.0127332,-0.0200276 -0.0303277,-0.0365077 -0.0511476,-0.0479119 -0.0208148,-0.0113991 -0.0441753,-0.0173491 -0.0679089,-0.0172878l-0.166161 0c-0.0237234,0 -0.0470583,0.00598068 -0.0678629,0.0173747 -0.0208046,0.0113991 -0.0383991,0.0278536 -0.0511681,0.0478404 -0.012769,0.0199918 -0.0202985,0.0428769 -0.0218985,0.0665441 -0.00159996,0.023662 0.00279099,0.0473496 0.0127588,0.0688801l0.044344 0.0957318c-0.0100854,0.0138169 -0.0184174,0.0288351 -0.0248173,0.0447018 -0.00121147,0.00322037 -0.00111435,0.00678322 0.00027092,0.00993202 0.00138527,0.00315392 0.00395134,0.00563309 0.00714615,0.00691101 0.00319481,0.00128304 0.00676277,0.00126259 0.00993714,-6.13403e-005 0.00317947,-0.00131882 0.00571488,-0.00383377 0.00705925,-0.00699791 0.00631806,-0.0157082 0.0148086,-0.0304555 0.025216,-0.0438072 0.000148239,-0.000168686 0.000281143,-0.000342484 0.000403824,-0.000526505 0.0116393,-0.0148393 0.0255636,-0.0277412 0.0412463,-0.038215 0.000107346,0 0.000158463,-0.000138016 0.000265808,-0.000173798 0.0199918,-0.013178 0.0424169,-0.0222257 0.0659562,-0.0266115 0.0235394,-0.00438072 0.0477177,-0.00401268 0.0711139,0.0010939 0.0233911,0.00510147 0.0455299,0.0148341 0.0651077,0.0286255 0.0195778,0.0137862 0.0361959,0.03135 0.0488831,0.0516588 0.0126821,0.0203088 0.0211778,0.0429485 0.0249757,0.0665901 0.0038031,0.0236416 0.00283699,0.0477995 -0.00283699,0.0710628 -0.00567909,0.0232633 -0.0159536,0.0451516 -0.0302152,0.0643818 -0.0142667,0.0192353 -0.0322395,0.0354189 -0.0528549,0.0476001l-0.0899965 0c-0.00348618,0 -0.00683434,0.00138527 -0.00929817,0.00384911 -0.00246895,0.00246895 -0.00385422,0.005812 -0.00385422,0.00930329 0,0.00348618 0.00138527,0.00682923 0.00385422,0.00929817 0.00246384,0.00246895 0.005812,0.00385422 0.00929817,0.00385422l0.093452 0c0.00226448,-2.04468e-005 0.00447785,-0.000623627 0.00643562,-0.00175331 0.0252722,-0.0141134 0.0472678,-0.03341 0.0645505,-0.0566274 0.0172775,-0.0232173 0.0294536,-0.0498288 0.0357205,-0.0780812 0.00626694,-0.0282575 0.00648674,-0.0575117 0.000644074,-0.085856 -0.00584778,-0.0283495 -0.01762,-0.0551347 -0.0345551,-0.0786077l0.0450698 -0.097296c0.010024,-0.02151 0.0144405,-0.0452078 0.0128406,-0.0688852 -0.00159485,-0.0236774 -0.00915505,-0.0465624 -0.0219752,-0.0665338zm-0.0147319 0.124373l-0.0398099 0.0859276c-0.00791802,-0.00821961 -0.0165057,-0.0157696 -0.0256709,-0.0225681l0.0357205 -0.077161c0.00580177,-0.0125185 0.00835251,-0.0262997 0.00742218,-0.0400655 -0.000925217,-0.0137658 -0.00531105,-0.0270767 -0.0127383,-0.0387006 -0.00743241,-0.011624 -0.0176711,-0.0211931 -0.0297756,-0.0278178 -0.0120994,-0.00662476 -0.025676,-0.0100956 -0.0394725,-0.0100905l-0.0164852 0c-0.00349129,0 -0.00683434,0.00138527 -0.00930329,0.00385422 -0.00246384,0.00246384 -0.00384911,0.005812 -0.00384911,0.00929817 0,0.00349129 0.00138527,0.00683434 0.00384911,0.00930329 0.00246895,0.00246384 0.005812,0.00384911 0.00930329,0.00384911l0.016429 0c0.00938507,-5.1117e-006 0.0186168,0.00235138 0.0268517,0.00685478 0.00822983,0.0045034 0.0151971,0.0110106 0.0202474,0.0189184 0.00505547,0.00790268 0.00803047,0.0169555 0.00865921,0.0263201 0.000628739,0.00936463 -0.00110924,0.0187344 -0.00505547,0.0272453l-0.0340234 0.0735675c-0.0304657,-0.017114 -0.0647959,-0.026177 -0.0997394,-0.0263355 -0.0349436,-0.000153351 -0.0693504,0.00859787 -0.0999694,0.0254409l-0.0336707 -0.072673c-0.00395134,-0.00851097 -0.00568932,-0.0178807 -0.00506058,-0.0272402 0.000628739,-0.00935951 0.00360375,-0.0184123 0.00865921,-0.0263201 0.00505036,-0.00790779 0.0120125,-0.0144099 0.0202372,-0.0189184 0.00822983,-0.0045034 0.0174616,-0.00686501 0.0268466,-0.0068599l0.110321 0c0.00349129,0 0.00683434,-0.00138527 0.00930329,-0.00384911 0.00246384,-0.00246895 0.00384911,-0.005812 0.00384911,-0.00930329 0,-0.00348618 -0.00138527,-0.00683434 -0.00384911,-0.00929817 -0.00246895,-0.00246895 -0.005812,-0.00385422 -0.00930329,-0.00385422l-0.110408 0c-0.0137965,5.1117e-006 -0.0273731,0.00348106 -0.0394725,0.0101109 -0.0120994,0.00662987 -0.022333,0.0162041 -0.0297603,0.0278281 -0.00742729,0.0116291 -0.011808,0.02494 -0.0127383,0.0387058 -0.000930329,0.0137658 0.00162041,0.0275418 0.00742218,0.0400655l0.0351787 0.0759138c-0.00920105,0.0067321 -0.0178143,0.0142258 -0.0257629,0.0223943l-0.0391607 -0.0845628c-0.00812248,-0.0175127 -0.0116956,-0.036794 -0.0103972,-0.0560549 0.00128815,-0.0192609 0.00741196,-0.0378879 0.017804,-0.0541584 0.0103921,-0.0162705 0.024715,-0.0296632 0.0416501,-0.0389409 0.016935,-0.00927262 0.0359301,-0.0141338 0.055237,-0.0141287l0.166161 0c0.0193018,-5.1117e-006 0.0382968,0.00485611 0.0552319,0.0141287 0.0169299,0.00927262 0.031258,0.0226601 0.0416501,0.0389256 0.0103972,0.0162705 0.0165261,0.0348924 0.0178245,0.0541533 0.00130348,0.0192609 -0.00226959,0.0385422 -0.0103819,0.05606l0 3.57819e-005z"/>
  </g>
 </g>
</svg>
